<svg width="245" height="209" viewBox="0 0 245 209" fill="none" xmlns="http://www.w3.org/2000/svg">
<g clip-path="url(#clip0_111_239)">
<mask id="mask0_111_239" style="mask-type:luminance" maskUnits="userSpaceOnUse" x="44" y="0" width="158" height="158">
<path d="M122.951 157.231C166.369 157.231 201.566 122.033 201.566 78.6153C201.566 35.1973 166.369 0 122.951 0C79.5327 0 44.3354 35.1973 44.3354 78.6153C44.3354 122.033 79.5327 157.231 122.951 157.231Z" fill="white"/>
</mask>
<g mask="url(#mask0_111_239)">
<path d="M122.951 156.529C165.981 156.529 200.864 121.646 200.864 78.6156C200.864 35.5852 165.981 0.702148 122.951 0.702148C79.9204 0.702148 45.0374 35.5852 45.0374 78.6156C45.0374 121.646 79.9204 156.529 122.951 156.529Z" stroke="#60606B" stroke-width="2"/>
<path d="M123.358 53.0615V44.498C123.358 44.2385 123.255 43.9896 123.071 43.8061C122.888 43.6226 122.639 43.5195 122.379 43.5195C122.12 43.5195 121.871 43.6226 121.687 43.8061C121.504 43.9896 121.401 44.2385 121.401 44.498V53.0615C121.401 53.321 121.504 53.5699 121.687 53.7534C121.871 53.9369 122.12 54.04 122.379 54.04C122.639 54.04 122.888 53.9369 123.071 53.7534C123.255 53.5699 123.358 53.321 123.358 53.0615Z" fill="#60606B"/>
<path d="M99.4757 53.516C99.3848 53.6068 99.3127 53.7146 99.2635 53.8333C99.2143 53.952 99.189 54.0792 99.189 54.2077C99.189 54.3362 99.2143 54.4634 99.2635 54.5821C99.3127 54.7008 99.3848 54.8086 99.4757 54.8994L105.53 60.9549C105.715 61.1322 105.962 61.23 106.218 61.2274C106.474 61.2248 106.719 61.1219 106.9 60.9409C107.081 60.7599 107.184 60.515 107.186 60.259C107.189 60.003 107.091 59.7561 106.914 59.5714L100.859 53.516C100.676 53.3325 100.427 53.2295 100.167 53.2295C99.908 53.2295 99.6592 53.3325 99.4757 53.516Z" fill="#60606B"/>
<path d="M91.3474 77.708H99.9108C100.17 77.708 100.419 77.6049 100.603 77.4214C100.786 77.2379 100.889 76.989 100.889 76.7295C100.889 76.47 100.786 76.2211 100.603 76.0376C100.419 75.8541 100.17 75.751 99.9108 75.751H91.3474C91.0879 75.751 90.839 75.8541 90.6555 76.0376C90.472 76.2211 90.3689 76.47 90.3689 76.7295C90.3689 76.989 90.472 77.2379 90.6555 77.4214C90.839 77.6049 91.0879 77.708 91.3474 77.708Z" fill="#60606B"/>
<path d="M145.128 75.4736C145.128 75.7331 145.231 75.982 145.415 76.1655C145.598 76.349 145.847 76.4521 146.107 76.4521H154.67C154.93 76.4521 155.178 76.349 155.362 76.1655C155.545 75.982 155.648 75.7331 155.648 75.4736C155.648 75.2141 155.545 74.9652 155.362 74.7817C155.178 74.5982 154.93 74.4951 154.67 74.4951H146.104C145.844 74.4951 145.595 74.5982 145.412 74.7817C145.228 74.9652 145.125 75.2141 145.125 75.4736H145.128Z" fill="#60606B"/>
<path d="M145.653 52.6266C145.562 52.5357 145.454 52.4636 145.336 52.4144C145.217 52.3652 145.09 52.3398 144.961 52.3398C144.833 52.3398 144.706 52.3652 144.587 52.4144C144.468 52.4636 144.36 52.5357 144.269 52.6266L138.215 58.6821C138.037 58.8668 137.94 59.1136 137.942 59.3697C137.945 59.6257 138.048 59.8705 138.229 60.0515C138.41 60.2326 138.655 60.3354 138.911 60.3381C139.167 60.3407 139.413 60.2429 139.598 60.0656L145.653 54.0101C145.744 53.9193 145.816 53.8114 145.865 53.6927C145.914 53.574 145.94 53.4468 145.94 53.3183C145.94 53.1898 145.914 53.0626 145.865 52.9439C145.816 52.8252 145.744 52.7174 145.653 52.6266Z" fill="#60606B"/>
<path d="M118.129 113.711H128.329C128.458 113.711 128.585 113.686 128.704 113.637C128.824 113.589 128.932 113.517 129.023 113.426C129.115 113.335 129.187 113.227 129.236 113.108C129.286 112.989 129.311 112.861 129.312 112.732V109.374H129.82C130.78 109.374 131.7 108.993 132.379 108.315C133.058 107.637 133.44 106.718 133.442 105.758V100.019C134.056 99.5724 134.557 98.9868 134.902 98.3102C135.248 97.6335 135.43 96.8849 135.432 96.125V90.4394C138.238 87.962 140.223 84.689 141.123 81.0557C142.023 77.4225 141.796 73.6012 140.472 70.1002C139.148 66.5992 136.789 63.5844 133.709 61.4567C130.629 59.3291 126.975 58.1895 123.232 58.1895C119.489 58.1895 115.834 59.3291 112.755 61.4567C109.675 63.5844 107.316 66.5992 105.992 70.1002C104.667 73.6012 104.44 77.4225 105.341 81.0557C106.241 84.689 108.226 87.962 111.032 90.4394V96.125C111.034 96.8846 111.215 97.6331 111.561 98.3096C111.906 98.9861 112.406 99.5716 113.021 100.019V105.758C113.022 106.718 113.405 107.638 114.084 108.315C114.763 108.993 115.684 109.374 116.643 109.374H117.151V112.73C117.151 112.859 117.177 112.986 117.226 113.105C117.276 113.224 117.348 113.332 117.44 113.423C117.531 113.514 117.639 113.586 117.758 113.635C117.878 113.684 118.005 113.709 118.134 113.708L118.129 113.711ZM127.349 111.754H119.109V109.374H127.349V111.754ZM131.48 105.76C131.479 106.201 131.304 106.622 130.992 106.934C130.681 107.245 130.259 107.419 129.818 107.42H124.21V100.979H130.569C130.876 100.978 131.181 100.947 131.482 100.888L131.48 105.76ZM112.99 90.7279V89.9944C112.99 89.9818 112.983 89.9712 112.983 89.9586C112.959 89.7015 112.847 89.4606 112.666 89.2763C112.656 89.2665 112.652 89.2525 112.641 89.2433C110.052 87.0704 108.194 84.1536 107.319 80.8886C106.444 77.6236 106.595 74.1685 107.752 70.9923C108.908 67.816 111.013 65.0724 113.782 63.1337C116.551 61.195 119.849 60.155 123.229 60.155C126.609 60.155 129.908 61.195 132.677 63.1337C135.446 65.0724 137.551 67.816 138.707 70.9923C139.863 74.1685 140.014 77.6236 139.14 80.8886C138.265 84.1536 136.407 87.0704 133.818 89.2433C133.807 89.2525 133.803 89.2672 133.793 89.277C133.693 89.3657 133.612 89.4744 133.557 89.596C133.502 89.7176 133.472 89.8495 133.471 89.9832V89.993V96.1292C133.469 96.8973 133.163 97.6333 132.62 98.176C132.076 98.7186 131.34 99.0236 130.571 99.0239H124.212V82.639H128.332C128.591 82.639 128.84 82.5359 129.024 82.3524C129.207 82.1689 129.31 81.92 129.31 81.6605C129.31 81.401 129.207 81.1521 129.024 80.9686C128.84 80.7851 128.591 80.682 128.332 80.682H118.13C117.87 80.682 117.622 80.7851 117.438 80.9686C117.254 81.1521 117.151 81.401 117.151 81.6605C117.151 81.92 117.254 82.1689 117.438 82.3524C117.622 82.5359 117.87 82.639 118.13 82.639H122.25V99.0232H115.889C115.121 99.023 114.385 98.7181 113.841 98.1754C113.298 97.6327 112.992 96.8966 112.99 96.1285V90.7279ZM114.979 105.761V100.888C115.28 100.948 115.585 100.978 115.891 100.98H122.252V107.421H116.644C116.204 107.421 115.781 107.246 115.47 106.935C115.158 106.624 114.983 106.202 114.982 105.762L114.979 105.761Z" fill="#60606B"/>
</g>
</g>
<path d="M53.7016 188.836V206.291H51.5879V188.836H53.7016ZM71.7804 188.836V206.291H69.735L60.2236 192.586H60.0531V206.291H57.9395V188.836H59.9849L69.5304 202.575H69.7009V188.836H71.7804ZM89.8507 188.836V206.291H87.8053L78.2939 192.586H78.1234V206.291H76.0098V188.836H78.0553L87.6007 202.575H87.7712V188.836H89.8507ZM108.807 197.564C108.807 199.405 108.475 200.996 107.81 202.336C107.145 203.677 106.234 204.711 105.074 205.439C103.915 206.166 102.591 206.53 101.103 206.53C99.6142 206.53 98.2903 206.166 97.1313 205.439C95.9722 204.711 95.0602 203.677 94.3955 202.336C93.7307 200.996 93.3983 199.405 93.3983 197.564C93.3983 195.723 93.7307 194.132 94.3955 192.791C95.0602 191.45 95.9722 190.416 97.1313 189.689C98.2903 188.961 99.6142 188.598 101.103 188.598C102.591 188.598 103.915 188.961 105.074 189.689C106.234 190.416 107.145 191.45 107.81 192.791C108.475 194.132 108.807 195.723 108.807 197.564ZM106.762 197.564C106.762 196.052 106.509 194.777 106.003 193.737C105.503 192.697 104.824 191.91 103.966 191.376C103.114 190.842 102.16 190.575 101.103 190.575C100.046 190.575 99.0886 190.842 98.2307 191.376C97.3784 191.91 96.6994 192.697 96.1938 193.737C95.6938 194.777 95.4438 196.052 95.4438 197.564C95.4438 199.075 95.6938 200.351 96.1938 201.39C96.6994 202.43 97.3784 203.217 98.2307 203.751C99.0886 204.285 100.046 204.552 101.103 204.552C102.16 204.552 103.114 204.285 103.966 203.751C104.824 203.217 105.503 202.43 106.003 201.39C106.509 200.351 106.762 199.075 106.762 197.564ZM112.257 188.836L117.439 203.53H117.643L122.825 188.836H125.041L118.632 206.291H116.45L110.041 188.836H112.257ZM126.976 206.291H124.76L131.169 188.836H133.351L139.76 206.291H137.544L132.328 191.598H132.192L126.976 206.291ZM127.794 199.473H136.726V201.348H127.794V199.473ZM139.485 190.711V188.836H152.576V190.711H147.087V206.291H144.974V190.711H139.485ZM157.952 188.836V206.291H155.838V188.836H157.952ZM176.917 197.564C176.917 199.405 176.584 200.996 175.92 202.336C175.255 203.677 174.343 204.711 173.184 205.439C172.025 206.166 170.701 206.53 169.212 206.53C167.724 206.53 166.4 206.166 165.241 205.439C164.082 204.711 163.17 203.677 162.505 202.336C161.84 200.996 161.508 199.405 161.508 197.564C161.508 195.723 161.84 194.132 162.505 192.791C163.17 191.45 164.082 190.416 165.241 189.689C166.4 188.961 167.724 188.598 169.212 188.598C170.701 188.598 172.025 188.961 173.184 189.689C174.343 190.416 175.255 191.45 175.92 192.791C176.584 194.132 176.917 195.723 176.917 197.564ZM174.871 197.564C174.871 196.052 174.618 194.777 174.113 193.737C173.613 192.697 172.934 191.91 172.076 191.376C171.224 190.842 170.269 190.575 169.212 190.575C168.155 190.575 167.198 190.842 166.34 191.376C165.488 191.91 164.809 192.697 164.303 193.737C163.803 194.777 163.553 196.052 163.553 197.564C163.553 199.075 163.803 200.351 164.303 201.39C164.809 202.43 165.488 203.217 166.34 203.751C167.198 204.285 168.155 204.552 169.212 204.552C170.269 204.552 171.224 204.285 172.076 203.751C172.934 203.217 173.613 202.43 174.113 201.39C174.618 200.351 174.871 199.075 174.871 197.564ZM194.312 188.836V206.291H192.266L182.755 192.586H182.584V206.291H180.471V188.836H182.516L192.062 202.575H192.232V188.836H194.312Z" fill="#1D2E3B"/>
<defs>
<clipPath id="clip0_111_239">
<rect width="157.231" height="157.231" fill="white" transform="translate(44.3354)"/>
</clipPath>
</defs>
</svg>
