<svg width="245" height="209" viewBox="0 0 245 209" fill="none" xmlns="http://www.w3.org/2000/svg">
<g clip-path="url(#clip0_111_242)">
<mask id="mask0_111_242" style="mask-type:luminance" maskUnits="userSpaceOnUse" x="43" y="0" width="158" height="158">
<path d="M122.049 157.443C165.467 157.443 200.665 122.245 200.665 78.8273C200.665 35.4092 165.467 0.211914 122.049 0.211914C78.6311 0.211914 43.4338 35.4092 43.4338 78.8273C43.4338 122.245 78.6311 157.443 122.049 157.443Z" fill="white"/>
</mask>
<g mask="url(#mask0_111_242)">
<path d="M122.049 1.61576C116.81 1.61576 111.574 2.14354 106.487 3.18445C101.53 4.19876 96.6545 5.71222 91.9954 7.68285C87.4206 9.61782 83.0081 12.0129 78.8805 14.8014C74.7917 17.5638 70.9467 20.7362 67.4524 24.2305C63.9581 27.7248 60.7857 31.5698 58.0234 35.6586C55.2348 39.7862 52.8397 44.1987 50.9048 48.7735C48.9341 53.4326 47.4207 58.3082 46.4064 63.265C45.3655 68.3517 44.8377 73.5876 44.8377 78.8273C44.8377 84.0669 45.3655 89.3028 46.4064 94.3896C47.4207 99.3463 48.9341 104.222 50.9048 108.881C52.8397 113.456 55.2348 117.868 58.0234 121.996C60.7857 126.085 63.9581 129.93 67.4524 133.424C70.9467 136.918 74.7917 140.091 78.8805 142.853C83.0081 145.642 87.4206 148.037 91.9954 149.972C96.6545 151.942 101.53 153.456 106.487 154.47C111.574 155.511 116.81 156.039 122.049 156.039C127.289 156.039 132.525 155.511 137.611 154.47C142.568 153.456 147.444 151.942 152.103 149.972C156.678 148.037 161.09 145.642 165.218 142.853C169.307 140.091 173.152 136.918 176.646 133.424C180.14 129.93 183.313 126.085 186.075 121.996C188.864 117.868 191.259 113.456 193.194 108.881C195.164 104.222 196.678 99.3463 197.692 94.3896C198.733 89.3028 199.261 84.0669 199.261 78.8273C199.261 73.5876 198.733 68.3517 197.692 63.265C196.678 58.3082 195.164 53.4326 193.194 48.7735C191.259 44.1987 188.864 39.7862 186.075 35.6586C183.313 31.5698 180.14 27.7248 176.646 24.2305C173.152 20.7362 169.307 17.5638 165.218 14.8014C161.09 12.0129 156.678 9.61782 152.103 7.68285C147.444 5.71222 142.568 4.19876 137.611 3.18445C132.525 2.14354 127.289 1.61576 122.049 1.61576ZM122.049 0.211914C165.467 0.211914 200.665 35.4092 200.665 78.8273C200.665 122.245 165.467 157.443 122.049 157.443C78.6311 157.443 43.4338 122.245 43.4338 78.8273C43.4338 35.4092 78.6311 0.211914 122.049 0.211914Z" fill="#60606B"/>
<path d="M114.137 44.5716C113.203 44.5423 112.269 44.6567 111.369 44.9107C109.585 45.4256 108.024 46.5204 106.931 48.022C105.839 49.5236 105.278 51.3465 105.337 53.2025C105.337 55.5244 106.44 58.0822 107.74 60.0862C111.492 65.8167 116.865 69.6914 121.497 73.5632C121.65 73.6951 121.844 73.7677 122.046 73.7677C122.247 73.7677 122.442 73.6951 122.594 73.5632C127.233 69.6878 132.603 65.8132 136.351 60.0862C137.651 58.0822 138.754 55.5237 138.754 53.2025C138.813 51.3466 138.253 49.5238 137.16 48.0222C136.068 46.5206 134.507 45.4257 132.723 44.9107C129.431 43.9476 125.383 44.9717 122.043 48.4048C119.586 45.8828 116.771 44.632 114.131 44.5716H114.137ZM114.111 46.2141C116.474 46.2584 119.1 47.3941 121.422 50.0747C121.501 50.1635 121.597 50.2346 121.705 50.2833C121.813 50.332 121.93 50.3571 122.049 50.3571C122.167 50.3571 122.284 50.332 122.392 50.2833C122.5 50.2346 122.597 50.1635 122.675 50.0747C125.773 46.5019 129.425 45.7003 132.259 46.5286C133.699 46.9238 134.962 47.7976 135.84 49.006C136.718 50.2145 137.159 51.6858 137.089 53.1779C137.089 53.1866 137.089 53.1952 137.089 53.2039C137.089 54.9629 136.118 57.3691 134.948 59.1751C131.545 64.3694 126.603 68.0523 122.048 71.8217C117.494 68.053 112.551 64.3722 109.148 59.1751C107.978 57.3691 107.008 54.9636 107.008 53.2039C107.008 53.1955 107.008 53.1868 107.008 53.1779C106.938 51.6858 107.379 50.2145 108.257 49.006C109.135 47.7976 110.398 46.9238 111.838 46.5286C112.576 46.3107 113.342 46.2054 114.11 46.2162L114.111 46.2141ZM95.9635 55.4184C95.8308 55.446 95.7067 55.5056 95.6021 55.5919C95.4975 55.6783 95.4156 55.7888 95.3634 55.914L87.0105 75.9399C86.9698 76.048 86.9521 76.1635 86.9586 76.2789V77.1135C86.9584 77.1845 86.9671 77.2552 86.9846 77.324L92.8337 98.1838C92.8789 98.3586 92.9797 98.514 93.1208 98.6267L101.242 105.119L102.861 112.342C102.873 112.459 102.91 112.573 102.969 112.675C103.029 112.777 103.109 112.865 103.205 112.933C103.301 113.002 103.41 113.05 103.525 113.073C103.641 113.096 103.76 113.095 103.875 113.069C103.99 113.043 104.098 112.993 104.193 112.923C104.287 112.852 104.365 112.762 104.422 112.659C104.479 112.556 104.514 112.442 104.524 112.324C104.534 112.207 104.518 112.088 104.479 111.977L102.808 104.467C102.768 104.282 102.667 104.117 102.521 103.998L94.3737 97.5057L88.6291 76.9843V76.4628L96.7013 57.141C97.4633 57.1479 98.2002 57.4146 98.7902 57.8969C99.4605 58.4971 99.9982 59.5605 100.304 61.3364C100.023 67.2585 96.7532 72.014 94.5597 76.7464C94.4682 76.9329 94.4497 77.147 94.5078 77.3465L97.8503 88.1933C97.8587 88.2106 97.8674 88.228 97.8763 88.2453C98.3105 89.2493 98.9207 90.1676 99.6781 90.9568C99.7379 91.06 99.8192 91.1493 99.9164 91.2185C100.014 91.2877 100.124 91.3352 100.242 91.358C100.359 91.3808 100.479 91.3782 100.595 91.3504C100.711 91.3226 100.82 91.2703 100.914 91.197C101.008 91.1237 101.086 91.031 101.141 90.9253C101.196 90.8196 101.228 90.7033 101.235 90.5841C101.241 90.465 101.222 90.3459 101.179 90.2347C101.136 90.1235 101.069 90.023 100.984 89.9397C100.359 89.2804 99.8478 88.5227 99.4696 87.6971V87.6711C99.4633 87.6557 99.45 87.6606 99.4437 87.6451L96.2317 77.1633C97.2087 75.1004 98.4322 72.9279 99.5216 70.5652C100.316 70.9372 100.892 71.4146 101.167 73.0683C101.175 73.0774 101.184 73.086 101.193 73.0942L102.864 81.438C102.89 81.5823 102.953 81.7174 103.047 81.8297L109.653 89.235C112.292 94.7851 113.641 103.923 116.234 112.389C116.265 112.497 116.317 112.598 116.387 112.686C116.458 112.773 116.545 112.846 116.644 112.899C116.743 112.953 116.851 112.986 116.963 112.998C117.075 113.009 117.188 112.998 117.295 112.965C117.402 112.932 117.502 112.878 117.589 112.806C117.675 112.734 117.746 112.646 117.798 112.546C117.85 112.446 117.882 112.337 117.891 112.225C117.9 112.113 117.887 112.001 117.852 111.894C115.297 103.551 113.992 94.4032 111.114 88.4264C111.081 88.35 111.037 88.2791 110.983 88.2158L104.429 80.8624L102.811 72.7791H102.837C102.742 71.9768 102.443 71.2124 101.967 70.5593C101.491 69.9063 100.856 69.3867 100.121 69.0505C101.206 66.5932 101.843 63.9617 102.001 61.2802C102.008 61.2196 102.008 61.1583 102.001 61.0977C101.659 59.0432 100.962 57.5776 99.9126 56.6391C98.8534 55.7619 97.4987 55.3233 96.1264 55.4135C96.0743 55.4088 96.0219 55.4088 95.9699 55.4135L95.9635 55.4184ZM147.976 55.4184C146.604 55.3283 145.249 55.7668 144.19 56.644C143.14 57.5825 142.443 59.0488 142.101 61.1026C142.094 61.1633 142.094 61.2245 142.101 61.2851C142.26 63.9666 142.896 66.5981 143.981 69.0554C143.247 69.3913 142.611 69.9108 142.135 70.5639C141.659 71.217 141.36 71.9816 141.266 72.784H141.292L139.673 80.8673L133.119 88.2207C133.065 88.284 133.021 88.3549 132.989 88.4313C130.111 94.4081 128.807 103.556 126.25 111.899C126.215 112.006 126.202 112.118 126.212 112.23C126.221 112.342 126.252 112.451 126.304 112.551C126.356 112.651 126.427 112.739 126.514 112.811C126.6 112.883 126.7 112.937 126.807 112.97C126.915 113.002 127.028 113.014 127.14 113.002C127.251 112.991 127.36 112.958 127.459 112.904C127.557 112.851 127.645 112.778 127.715 112.691C127.785 112.603 127.838 112.502 127.869 112.394C130.462 103.929 131.811 94.7893 134.449 89.2399L141.056 81.8346C141.15 81.7225 141.213 81.5877 141.238 81.4436L142.91 73.0999L142.936 73.0732C143.211 71.4195 143.786 70.9422 144.582 70.5702C145.672 72.9321 146.898 75.1039 147.871 77.1682L144.662 87.6479L144.636 87.6999C144.258 88.5254 143.746 89.283 143.122 89.9425C143.037 90.0258 142.97 90.1263 142.927 90.2375C142.883 90.3487 142.864 90.4678 142.871 90.587C142.878 90.7061 142.91 90.8224 142.965 90.9281C143.02 91.0338 143.098 91.1265 143.192 91.1998C143.286 91.2731 143.395 91.3254 143.511 91.3532C143.627 91.381 143.747 91.3836 143.864 91.3608C143.982 91.338 144.092 91.2905 144.19 91.2213C144.287 91.1521 144.368 91.0628 144.428 90.9596C145.185 90.1704 145.795 89.2521 146.23 88.2481C146.239 88.2312 146.248 88.2137 146.256 88.1961L149.598 77.3486C149.656 77.1491 149.638 76.9351 149.546 76.7485C147.353 72.0154 144.082 67.2599 143.802 61.3385C144.108 59.5605 144.644 58.4964 145.316 57.899C145.906 57.4168 146.643 57.1499 147.405 57.1424L149.964 63.2442C150.053 63.444 150.218 63.6008 150.421 63.681C150.625 63.7611 150.852 63.7582 151.054 63.6729C151.255 63.5875 151.415 63.4266 151.5 63.2245C151.584 63.0225 151.586 62.7954 151.505 62.5921L148.737 55.9168C148.671 55.7703 148.565 55.6456 148.431 55.5578C148.297 55.4699 148.14 55.4225 147.98 55.4213L147.976 55.4184ZM152.023 65.4054C151.891 65.4184 151.765 65.4627 151.653 65.5344C151.542 65.6062 151.449 65.7034 151.383 65.8181C151.317 65.9328 151.279 66.0616 151.272 66.1939C151.265 66.3262 151.29 66.4582 151.345 66.579L155.47 76.4614V76.9829L149.726 97.5043L141.579 103.996C141.433 104.116 141.331 104.281 141.292 104.465L139.62 111.976C139.581 112.087 139.566 112.205 139.576 112.323C139.586 112.44 139.62 112.554 139.677 112.657C139.735 112.761 139.813 112.85 139.907 112.921C140.001 112.992 140.11 113.042 140.225 113.068C140.34 113.094 140.459 113.095 140.574 113.072C140.69 113.048 140.799 113.001 140.895 112.932C140.991 112.863 141.071 112.775 141.13 112.673C141.189 112.571 141.227 112.458 141.239 112.341L142.858 105.118L150.979 98.6253C151.12 98.5126 151.221 98.3572 151.266 98.1824L157.115 77.3226C157.132 77.2538 157.141 77.1831 157.141 77.1121V76.2768C157.147 76.1614 157.13 76.0459 157.089 75.9378L152.885 65.9248C152.818 65.756 152.697 65.6138 152.542 65.5196C152.386 65.4255 152.204 65.3847 152.023 65.4033V65.4054Z" fill="#60606B"/>
</g>
</g>
<path d="M72.6707 206.503V189.048H78.5684C79.9377 189.048 81.0571 189.296 81.9264 189.79C82.8014 190.278 83.4491 190.94 83.8696 191.776C84.29 192.611 84.5002 193.543 84.5002 194.571C84.5002 195.6 84.29 196.534 83.8696 197.375C83.4548 198.216 82.8127 198.886 81.9434 199.386C81.0741 199.881 79.9605 200.128 78.6025 200.128H74.3752V198.253H78.5343C79.4718 198.253 80.2247 198.091 80.7929 197.767C81.361 197.443 81.773 197.006 82.0287 196.455C82.29 195.898 82.4207 195.27 82.4207 194.571C82.4207 193.872 82.29 193.247 82.0287 192.696C81.773 192.145 81.3582 191.713 80.7843 191.401C80.2105 191.082 79.4491 190.923 78.5002 190.923H74.7843V206.503H72.6707ZM86.8397 206.503H84.6238L91.0329 189.048H93.2147L99.6238 206.503H97.4079L92.192 191.81H92.0556L86.8397 206.503ZM87.6579 199.685H96.5897V201.56H87.6579V199.685ZM111.888 193.412C111.786 192.548 111.371 191.878 110.644 191.401C109.916 190.923 109.024 190.685 107.968 190.685C107.195 190.685 106.519 190.81 105.939 191.06C105.365 191.31 104.916 191.653 104.593 192.091C104.274 192.528 104.115 193.026 104.115 193.582C104.115 194.048 104.226 194.449 104.448 194.784C104.675 195.114 104.965 195.389 105.317 195.611C105.669 195.827 106.039 196.006 106.425 196.148C106.811 196.284 107.166 196.395 107.49 196.48L109.263 196.957C109.718 197.077 110.223 197.242 110.78 197.452C111.343 197.662 111.88 197.949 112.391 198.313C112.908 198.671 113.334 199.131 113.669 199.693C114.005 200.256 114.172 200.946 114.172 201.764C114.172 202.707 113.925 203.56 113.431 204.321C112.942 205.082 112.226 205.688 111.283 206.136C110.345 206.585 109.206 206.81 107.865 206.81C106.615 206.81 105.533 206.608 104.618 206.205C103.709 205.801 102.993 205.239 102.47 204.517C101.953 203.796 101.661 202.957 101.593 202.003H103.774C103.831 202.662 104.053 203.207 104.439 203.639C104.831 204.065 105.326 204.384 105.922 204.594C106.524 204.798 107.172 204.901 107.865 204.901C108.672 204.901 109.397 204.77 110.039 204.509C110.681 204.242 111.189 203.872 111.564 203.401C111.939 202.923 112.127 202.367 112.127 201.73C112.127 201.151 111.965 200.679 111.641 200.315C111.317 199.952 110.891 199.656 110.362 199.429C109.834 199.202 109.263 199.003 108.649 198.832L106.502 198.219C105.138 197.827 104.058 197.267 103.263 196.54C102.468 195.813 102.07 194.861 102.07 193.685C102.07 192.707 102.334 191.855 102.862 191.128C103.397 190.395 104.112 189.827 105.01 189.423C105.914 189.014 106.922 188.81 108.036 188.81C109.161 188.81 110.161 189.011 111.036 189.415C111.911 189.813 112.604 190.358 113.115 191.051C113.632 191.744 113.905 192.531 113.933 193.412H111.888ZM127.193 193.412C127.09 192.548 126.676 191.878 125.948 191.401C125.221 190.923 124.329 190.685 123.272 190.685C122.5 190.685 121.823 190.81 121.244 191.06C120.67 191.31 120.221 191.653 119.897 192.091C119.579 192.528 119.42 193.026 119.42 193.582C119.42 194.048 119.531 194.449 119.752 194.784C119.98 195.114 120.269 195.389 120.622 195.611C120.974 195.827 121.343 196.006 121.73 196.148C122.116 196.284 122.471 196.395 122.795 196.48L124.568 196.957C125.022 197.077 125.528 197.242 126.085 197.452C126.647 197.662 127.184 197.949 127.696 198.313C128.213 198.671 128.639 199.131 128.974 199.693C129.309 200.256 129.477 200.946 129.477 201.764C129.477 202.707 129.23 203.56 128.735 204.321C128.247 205.082 127.531 205.688 126.588 206.136C125.65 206.585 124.511 206.81 123.17 206.81C121.92 206.81 120.838 206.608 119.923 206.205C119.014 205.801 118.298 205.239 117.775 204.517C117.258 203.796 116.965 202.957 116.897 202.003H119.079C119.136 202.662 119.357 203.207 119.744 203.639C120.136 204.065 120.63 204.384 121.227 204.594C121.829 204.798 122.477 204.901 123.17 204.901C123.977 204.901 124.701 204.77 125.343 204.509C125.985 204.242 126.494 203.872 126.869 203.401C127.244 202.923 127.431 202.367 127.431 201.73C127.431 201.151 127.269 200.679 126.946 200.315C126.622 199.952 126.196 199.656 125.667 199.429C125.139 199.202 124.568 199.003 123.954 198.832L121.806 198.219C120.443 197.827 119.363 197.267 118.568 196.54C117.772 195.813 117.375 194.861 117.375 193.685C117.375 192.707 117.639 191.855 118.167 191.128C118.701 190.395 119.417 189.827 120.315 189.423C121.218 189.014 122.227 188.81 123.34 188.81C124.465 188.81 125.465 189.011 126.34 189.415C127.215 189.813 127.909 190.358 128.42 191.051C128.937 191.744 129.21 192.531 129.238 193.412H127.193ZM135.066 189.048V206.503H132.952V189.048H135.066ZM154.031 197.776C154.031 199.617 153.698 201.207 153.034 202.548C152.369 203.889 151.457 204.923 150.298 205.651C149.139 206.378 147.815 206.742 146.326 206.742C144.838 206.742 143.514 206.378 142.355 205.651C141.196 204.923 140.284 203.889 139.619 202.548C138.954 201.207 138.622 199.617 138.622 197.776C138.622 195.935 138.954 194.344 139.619 193.003C140.284 191.662 141.196 190.628 142.355 189.901C143.514 189.173 144.838 188.81 146.326 188.81C147.815 188.81 149.139 189.173 150.298 189.901C151.457 190.628 152.369 191.662 153.034 193.003C153.698 194.344 154.031 195.935 154.031 197.776ZM151.985 197.776C151.985 196.264 151.732 194.989 151.227 193.949C150.727 192.909 150.048 192.122 149.19 191.588C148.338 191.054 147.383 190.787 146.326 190.787C145.269 190.787 144.312 191.054 143.454 191.588C142.602 192.122 141.923 192.909 141.417 193.949C140.917 194.989 140.667 196.264 140.667 197.776C140.667 199.287 140.917 200.563 141.417 201.602C141.923 202.642 142.602 203.429 143.454 203.963C144.312 204.497 145.269 204.764 146.326 204.764C147.383 204.764 148.338 204.497 149.19 203.963C150.048 203.429 150.727 202.642 151.227 201.602C151.732 200.563 151.985 199.287 151.985 197.776ZM171.426 189.048V206.503H169.38L159.869 192.798H159.698V206.503H157.585V189.048H159.63L169.176 202.787H169.346V189.048H171.426Z" fill="#1D2E3B"/>
<defs>
<clipPath id="clip0_111_242">
<rect width="157.231" height="157.231" fill="white" transform="translate(43.4338 0.211914)"/>
</clipPath>
</defs>
</svg>
