<svg width="158" height="158" viewBox="0 0 158 158" fill="none" xmlns="http://www.w3.org/2000/svg">
<g clip-path="url(#clip0_109_195)">
<mask id="mask0_109_195" style="mask-type:luminance" maskUnits="userSpaceOnUse" x="0" y="0" width="158" height="158">
<path d="M79.0162 157.443C122.434 157.443 157.632 122.245 157.632 78.8273C157.632 35.4092 122.434 0.211914 79.0162 0.211914C35.5982 0.211914 0.400879 35.4092 0.400879 78.8273C0.400879 122.245 35.5982 157.443 79.0162 157.443Z" fill="white"/>
</mask>
<g mask="url(#mask0_109_195)">
<path d="M79.0162 156.741C122.047 156.741 156.93 121.858 156.93 78.8275C156.93 35.7971 122.047 0.914062 79.0162 0.914062C35.9858 0.914062 1.10278 35.7971 1.10278 78.8275C1.10278 121.858 35.9858 156.741 79.0162 156.741Z" stroke="#60606B" stroke-width="2"/>
<path d="M77.978 43.7373C77.7515 43.773 77.5454 43.8887 77.3971 44.0635C77.2489 44.2383 77.1683 44.4606 77.17 44.6898V53.002C77.17 53.247 77.2674 53.4819 77.4406 53.6552C77.6138 53.8284 77.8488 53.9257 78.0938 53.9257C78.3388 53.9257 78.5737 53.8284 78.747 53.6552C78.9202 53.4819 79.0175 53.247 79.0175 53.002V44.6898C79.0163 44.5576 78.9879 44.427 78.934 44.3063C78.8802 44.1855 78.8021 44.077 78.7046 43.9877C78.6072 43.8984 78.4923 43.8301 78.3673 43.787C78.2423 43.7439 78.1098 43.727 77.978 43.7373ZM61.4056 44.6582C61.2722 44.6733 61.1435 44.716 61.0275 44.7836C60.9116 44.8512 60.8111 44.9423 60.7323 45.0509C60.6535 45.1595 60.5982 45.2834 60.5699 45.4146C60.5417 45.5458 60.5411 45.6815 60.5682 45.8129L62.4163 53.2013C62.4363 53.3273 62.4822 53.4477 62.551 53.5551C62.6198 53.6624 62.7101 53.7544 62.8163 53.8251C62.9224 53.8959 63.042 53.9439 63.1675 53.9661C63.2931 53.9883 63.4219 53.9843 63.5459 53.9543C63.6698 53.9244 63.7862 53.869 63.8878 53.7918C63.9893 53.7147 64.0737 53.6173 64.1357 53.5059C64.1978 53.3944 64.236 53.2714 64.2482 53.1444C64.2603 53.0175 64.246 52.8894 64.2062 52.7682L62.3581 45.3805C62.3051 45.1697 62.1817 44.9832 62.0084 44.852C61.8351 44.7208 61.6222 44.6527 61.4049 44.6589L61.4056 44.6582ZM96.5136 44.6582C96.3163 44.6763 96.1295 44.7555 95.9793 44.8849C95.8292 45.0142 95.7232 45.1873 95.6762 45.3798L93.8281 52.7675C93.7883 52.8887 93.774 53.0168 93.7861 53.1437C93.7983 53.2707 93.8366 53.3937 93.8986 53.5051C93.9606 53.6166 94.0451 53.714 94.1466 53.7911C94.2481 53.8683 94.3645 53.9236 94.4884 53.9536C94.6124 53.9836 94.7412 53.9876 94.8668 53.9654C94.9924 53.9432 95.112 53.8951 95.2181 53.8244C95.3242 53.7537 95.4145 53.6617 95.4833 53.5544C95.5522 53.447 95.598 53.3266 95.618 53.2006L97.4662 45.8122C97.4934 45.6718 97.4892 45.5272 97.454 45.3887C97.4188 45.2501 97.3533 45.1211 97.2623 45.0108C97.1714 44.9005 97.0571 44.8117 96.9278 44.7507C96.7985 44.6898 96.6566 44.6582 96.5136 44.6582ZM48.4144 52.9704C48.2531 53.001 48.1023 53.0719 47.9757 53.1765C47.8492 53.281 47.7512 53.4158 47.6907 53.5684C47.6302 53.721 47.6092 53.8864 47.6297 54.0492C47.6502 54.212 47.7115 54.3671 47.8079 54.4999L52.4273 60.0409C52.5856 60.2279 52.8111 60.3452 53.0551 60.3675C53.2992 60.3897 53.5422 60.3151 53.7317 60.1598C53.9212 60.0045 54.0421 59.7808 54.0681 59.5372C54.0942 59.2935 54.0235 59.0494 53.8711 58.8574L49.2518 53.3164C49.1526 53.193 49.0238 53.0965 48.8775 53.036C48.7311 52.9755 48.5718 52.953 48.4144 52.9704ZM109.391 52.9704C109.152 53.0032 108.935 53.1272 108.785 53.3164L104.165 58.8574C104.013 59.0494 103.942 59.2935 103.968 59.5372C103.994 59.7808 104.115 60.0045 104.305 60.1598C104.494 60.3151 104.737 60.3897 104.981 60.3675C105.225 60.3452 105.451 60.2279 105.609 60.0409L110.229 54.4999C110.331 54.351 110.391 54.1765 110.4 53.9959C110.409 53.8153 110.368 53.6356 110.281 53.4769C110.195 53.3182 110.065 53.1868 109.908 53.0974C109.751 53.008 109.572 52.964 109.391 52.9704ZM68.6796 60.3876C68.5554 60.4114 68.4374 60.4604 68.3328 60.5315L50.7799 72.5344C50.5828 72.6804 50.4491 72.8963 50.4062 73.1377C50.3632 73.3792 50.4143 73.6279 50.5489 73.8329L78.2643 113.55C78.3551 113.666 78.4712 113.76 78.6038 113.825C78.7364 113.889 78.8819 113.923 79.0295 113.923C79.177 113.923 79.3225 113.889 79.4551 113.825C79.5877 113.76 79.7038 113.666 79.7945 113.55L99.1676 85.8442C99.2488 85.7464 99.3089 85.6329 99.3443 85.5108C99.3796 85.3887 99.3893 85.2606 99.3728 85.1346C99.3564 85.0085 99.3141 84.8872 99.2486 84.7783C99.1831 84.6693 99.0958 84.575 98.9922 84.5014C98.8886 84.4277 98.7709 84.3762 98.6465 84.3501C98.5221 84.324 98.3936 84.3239 98.2692 84.3497C98.1447 84.3756 98.0269 84.4268 97.9231 84.5003C97.8194 84.5737 97.7319 84.6678 97.6662 84.7766L82.1053 107.028C86.076 97.3277 89.653 88.4842 92.5857 80.7055H92.8742C93.0042 80.7045 93.1325 80.6748 93.2497 80.6184L103.528 76.2314L101.363 79.2328C101.281 79.3307 101.221 79.4441 101.186 79.5663C101.151 79.6884 101.141 79.8165 101.157 79.9425C101.174 80.0686 101.216 80.1899 101.282 80.2988C101.347 80.4078 101.434 80.502 101.538 80.5757C101.642 80.6494 101.759 80.7009 101.884 80.727C102.008 80.753 102.137 80.7532 102.261 80.7273C102.385 80.7015 102.503 80.6502 102.607 80.5768C102.711 80.5033 102.798 80.4093 102.864 80.3005L107.483 73.8357C107.618 73.6308 107.669 73.382 107.626 73.1405C107.583 72.899 107.45 72.6831 107.252 72.5372L89.7001 60.5343C89.5447 60.436 89.3637 60.3859 89.18 60.3904H68.6838L68.6796 60.3876ZM69.1127 62.2344H88.9181L94.0885 65.7861L87.939 69.6242H70.0961L63.9451 65.7861L69.1127 62.2344ZM62.2408 66.9373L67.8998 70.4581L65.3876 78.8566L52.7424 73.4307L62.2408 66.9373ZM95.7928 66.9373L105.288 73.4371L92.6432 78.8629L90.1311 70.4644L95.7928 66.9373ZM69.5493 71.4394C69.6247 71.4587 69.7023 71.4684 69.7802 71.4682H88.2583C88.3362 71.4682 88.4138 71.4585 88.4893 71.4394L90.7122 78.8566H84.5627C84.4393 78.8532 84.3165 78.8746 84.2015 78.9194C84.0865 78.9643 83.9816 79.0318 83.8931 79.1179C83.8046 79.204 83.7343 79.3069 83.6863 79.4206C83.6383 79.5343 83.6135 79.6565 83.6135 79.78C83.6135 79.9034 83.6383 80.0256 83.6863 80.1394C83.7343 80.2531 83.8046 80.356 83.8931 80.4421C83.9816 80.5282 84.0865 80.5956 84.2015 80.6405C84.3165 80.6854 84.4393 80.7068 84.5627 80.7034H90.5992C87.3942 89.1594 83.4396 98.7919 79.0224 109.564C74.6003 98.7919 70.6499 89.1594 67.4456 80.7034H68.8586C68.982 80.7068 69.1048 80.6854 69.2198 80.6405C69.3348 80.5956 69.4397 80.5282 69.5282 80.4421C69.6166 80.356 69.687 80.2531 69.735 80.1394C69.783 80.0256 69.8078 79.9034 69.8078 79.78C69.8078 79.6565 69.783 79.5343 69.735 79.4206C69.687 79.3069 69.6166 79.204 69.5282 79.1179C69.4397 79.0318 69.3348 78.9643 69.2198 78.9194C69.1048 78.8746 68.982 78.8532 68.8586 78.8566H67.3284L69.5493 71.4394ZM54.4502 76.2012L64.786 80.6163C64.9039 80.6708 65.0317 80.7005 65.1616 80.7034H65.4501C68.3588 88.4175 71.9126 97.1887 75.8441 106.793L54.4502 76.2012ZM76.0758 78.8566C75.9545 78.868 75.8367 78.9031 75.729 78.9601C75.6213 79.017 75.5259 79.0946 75.4482 79.1884C75.3705 79.2821 75.3121 79.3903 75.2762 79.5067C75.2403 79.6231 75.2277 79.7454 75.2391 79.8667C75.2504 79.9879 75.2856 80.1058 75.3425 80.2134C75.3994 80.3211 75.477 80.4165 75.5708 80.4942C75.6646 80.5719 75.7728 80.6304 75.8892 80.6662C76.0055 80.7021 76.1279 80.7148 76.2491 80.7034H77.1729C77.2963 80.7068 77.4191 80.6854 77.5341 80.6405C77.6491 80.5956 77.7539 80.5282 77.8424 80.4421C77.9309 80.356 78.0012 80.2531 78.0493 80.1394C78.0973 80.0256 78.122 79.9034 78.122 79.78C78.122 79.6565 78.0973 79.5343 78.0493 79.4206C78.0012 79.3069 77.9309 79.204 77.8424 79.1179C77.7539 79.0318 77.6491 78.9643 77.5341 78.9194C77.4191 78.8746 77.2963 78.8532 77.1729 78.8566H76.0743H76.0758Z" fill="#60606B"/>
</g>
</g>
<defs>
<clipPath id="clip0_109_195">
<rect width="157.231" height="157.231" fill="white" transform="translate(0.400879 0.211914)"/>
</clipPath>
</defs>
</svg>
