<svg width="246" height="209" viewBox="0 0 246 209" fill="none" xmlns="http://www.w3.org/2000/svg">
<g clip-path="url(#clip0_111_240)">
<mask id="mask0_111_240" style="mask-type:luminance" maskUnits="userSpaceOnUse" x="44" y="0" width="158" height="158">
<path d="M122.984 157.443C166.402 157.443 201.599 122.245 201.599 78.8273C201.599 35.4092 166.402 0.211914 122.984 0.211914C79.5655 0.211914 44.3682 35.4092 44.3682 78.8273C44.3682 122.245 79.5655 157.443 122.984 157.443Z" fill="white"/>
</mask>
<g mask="url(#mask0_111_240)">
<path d="M122.983 156.741C166.014 156.741 200.897 121.858 200.897 78.8275C200.897 35.7971 166.014 0.914062 122.983 0.914062C79.9531 0.914062 45.0701 35.7971 45.0701 78.8275C45.0701 121.858 79.9531 156.741 122.983 156.741Z" stroke="#60606B" stroke-width="2"/>
<path d="M157.929 72.2381L148.649 58.4243C148.584 58.3274 148.501 58.2444 148.403 58.1802C148.306 58.116 148.196 58.0719 148.082 58.0505C147.967 58.0291 147.849 58.0309 147.735 58.0557C147.621 58.0804 147.513 58.1277 147.417 58.1948L145.355 59.6421C143.171 61.1751 138.968 60.5245 135.985 59.2722L131.967 57.5876C130.543 56.9876 129.008 56.6927 127.462 56.7217C125.916 56.7507 124.394 57.1031 122.993 57.7561C121.587 57.1045 120.061 56.753 118.512 56.724C116.964 56.695 115.426 56.9891 113.997 57.5876L109.98 59.2722C106.949 60.5462 102.701 61.2278 100.541 59.7109L98.4787 58.2636C98.3831 58.1966 98.2751 58.1495 98.161 58.1248C98.0469 58.1002 97.9291 58.0985 97.8144 58.1199C97.6997 58.1414 97.5904 58.1855 97.4929 58.2497C97.3955 58.3139 97.3118 58.3969 97.2468 58.4938L88.0362 72.2381C87.9081 72.4294 87.86 72.6632 87.9021 72.8895C87.9442 73.1158 88.0732 73.3166 88.2615 73.449L94.915 78.1174L93.7456 79.7592C93.0114 80.7931 92.7163 82.0756 92.9247 83.3264C93.1332 84.5772 93.8283 85.6946 94.8582 86.4345C95.6634 87.0139 96.6303 87.3257 97.6223 87.326C97.8895 87.326 98.1562 87.3037 98.4197 87.2593C98.4443 87.2551 98.466 87.2445 98.4899 87.2403C98.3099 88.0698 98.3546 88.9323 98.6196 89.7387C98.8845 90.545 99.36 91.266 99.9969 91.827C100.634 92.3881 101.409 92.7688 102.242 92.93C103.076 93.0911 103.937 93.0267 104.737 92.7434C104.722 93.5104 104.896 94.2692 105.243 94.9532C105.591 95.6372 106.101 96.2253 106.729 96.6658C107.536 97.2447 108.504 97.5555 109.497 97.5544C110.363 97.5516 111.212 97.3143 111.954 96.8679C111.958 96.8932 111.954 96.9185 111.959 96.9437C112.113 97.8765 112.54 98.7425 113.187 99.4321C113.834 100.122 114.671 100.604 115.592 100.817C116.513 101.03 117.476 100.965 118.36 100.63C119.244 100.295 120.009 99.7052 120.557 98.9351L121.899 97.0504L125.138 99.3232C125.883 99.8493 126.762 100.15 127.673 100.19C128.583 100.23 129.486 100.008 130.274 99.5492C131.061 99.0906 131.7 98.4152 132.115 97.6035C132.529 96.7919 132.701 95.8782 132.611 94.9713C133.283 95.3226 134.029 95.5068 134.787 95.5083C135.069 95.5084 135.351 95.4838 135.629 95.4346C136.834 95.2238 137.912 94.5564 138.637 93.5712C139.363 92.586 139.68 91.359 139.524 90.1456C140.056 90.3527 140.623 90.4609 141.194 90.465C141.477 90.4651 141.758 90.4404 142.037 90.3913C143.212 90.1868 144.268 89.5462 144.992 88.5975C145.716 87.6488 146.056 86.4618 145.943 85.2735C146.919 85.8607 148.073 86.0791 149.196 85.8889C150.318 85.6988 151.336 85.1127 152.064 84.237C152.792 83.3613 153.182 82.2538 153.163 81.1152C153.145 79.9766 152.719 78.8823 151.964 78.0304L157.755 73.4188C157.928 73.2808 158.042 73.0829 158.076 72.8645C158.109 72.6461 158.06 72.423 157.936 72.2396L157.929 72.2381ZM98.1298 85.5248C97.7386 85.5916 97.3379 85.5798 96.9512 85.4903C96.5645 85.4008 96.1995 85.2352 95.8774 85.0033C95.2263 84.535 94.787 83.8282 94.6555 83.0371C94.524 82.246 94.7109 81.435 95.1754 80.7812L96.9787 78.241C97.2088 77.918 97.5003 77.6435 97.8365 77.4333C98.1728 77.223 98.5471 77.081 98.9383 77.0155C99.3294 76.95 99.7296 76.9622 100.116 77.0515C100.502 77.1407 100.867 77.3052 101.19 77.5355C101.841 78.0036 102.281 78.7104 102.412 79.5014C102.544 80.2924 102.357 81.1033 101.892 81.7569L100.987 83.0274L100.083 84.2972C99.8533 84.6213 99.562 84.8967 99.2255 85.1073C98.8889 85.318 98.5139 85.4596 98.1221 85.5241L98.1298 85.5248ZM101.401 90.6959C100.749 90.2282 100.309 89.5213 100.178 88.7299C100.046 87.9385 100.233 87.1273 100.699 86.4738L102.426 84.0494L103.33 82.7796L104.152 81.6257C104.382 81.2986 104.673 81.0201 105.011 80.8064C105.348 80.5927 105.725 80.4481 106.119 80.3808C106.512 80.3135 106.916 80.3248 107.305 80.4143C107.694 80.5037 108.062 80.6694 108.387 80.9018C108.712 81.1341 108.987 81.4286 109.198 81.7682C109.408 82.1077 109.549 82.4855 109.613 82.8799C109.676 83.2743 109.661 83.6773 109.568 84.0658C109.475 84.4542 109.305 84.8203 109.07 85.143L105.617 89.9912C105.386 90.3139 105.094 90.588 104.758 90.798C104.422 91.0079 104.047 91.1495 103.656 91.2147C103.265 91.2799 102.865 91.2674 102.479 91.1779C102.092 91.0884 101.728 90.9236 101.405 90.6931L101.401 90.6959ZM109.999 95.7567C109.409 95.8539 108.803 95.7742 108.258 95.5275C107.714 95.2808 107.254 94.8784 106.938 94.3708C106.622 93.8633 106.463 93.2734 106.482 92.6757C106.5 92.078 106.696 91.4993 107.043 91.0125L110.496 86.1643C110.968 85.5256 111.672 85.0979 112.456 84.9737C113.24 84.8495 114.041 85.0388 114.687 85.5006C115.333 85.9623 115.771 86.6596 115.907 87.4418C116.043 88.224 115.866 89.0282 115.414 89.6809L113.687 92.1054L112.782 93.3751L111.961 94.5291C111.731 94.8532 111.44 95.1285 111.103 95.3391C110.766 95.5497 110.391 95.6915 109.999 95.7561L109.999 95.7567ZM119.128 97.9138C118.657 98.5543 117.953 98.9837 117.168 99.1089C116.383 99.2341 115.58 99.0451 114.934 98.5828C114.287 98.1205 113.848 97.4222 113.713 96.6389C113.577 95.8556 113.756 95.0505 114.209 94.3978L115.114 93.1274L116.019 91.8576C116.475 91.1997 117.174 90.7499 117.962 90.6072C118.749 90.4645 119.561 90.6406 120.219 91.0967C120.877 91.5528 121.327 92.2516 121.47 93.0393C121.612 93.827 121.436 94.6391 120.98 95.297C120.974 95.3054 120.965 95.3089 120.958 95.3174C120.944 95.337 120.943 95.3602 120.931 95.3806L119.128 97.9138ZM150.851 82.9123C150.624 83.2375 150.335 83.5147 150 83.7281C149.666 83.9414 149.293 84.0868 148.902 84.1557C148.511 84.2247 148.111 84.216 147.723 84.13C147.336 84.0441 146.969 83.8827 146.645 83.6549L143.739 81.6193L135.849 76.0833C135.658 75.9498 135.422 75.8977 135.192 75.9384C134.963 75.9792 134.759 76.1094 134.625 76.3005C134.492 76.4916 134.44 76.7279 134.48 76.9574C134.521 77.1869 134.651 77.3908 134.842 77.5243L136.001 78.3371L142.732 83.0597L142.932 83.2001C143.258 83.4276 143.535 83.717 143.749 84.0519C143.963 84.3867 144.108 84.7603 144.178 85.1514C144.247 85.5425 144.239 85.9434 144.153 86.3313C144.067 86.7192 143.906 87.0864 143.679 87.4119C143.451 87.7375 143.162 88.0151 142.827 88.2288C142.492 88.4425 142.118 88.5882 141.727 88.6575C141.336 88.7268 140.935 88.7184 140.547 88.6328C140.16 88.5472 139.792 88.386 139.467 88.1585L137.535 86.803L131.378 82.4827C131.283 82.4166 131.176 82.3698 131.064 82.3449C130.951 82.3201 130.835 82.3177 130.721 82.3379C130.607 82.358 130.499 82.4004 130.401 82.4625C130.304 82.5247 130.22 82.6053 130.154 82.6999C130.088 82.7945 130.041 82.9013 130.016 83.014C129.991 83.1267 129.989 83.2432 130.009 83.3568C130.029 83.4705 130.072 83.579 130.134 83.6763C130.196 83.7736 130.277 83.8577 130.371 83.9238L136.529 88.2448C137.187 88.7043 137.635 89.4062 137.775 90.1961C137.915 90.986 137.735 91.7992 137.276 92.4567C136.816 93.1142 136.114 93.5622 135.324 93.7022C134.534 93.8422 133.721 93.6627 133.064 93.2032L126.907 88.8828C126.812 88.8167 126.705 88.77 126.593 88.7451C126.48 88.7203 126.363 88.7178 126.25 88.738C126.136 88.7582 126.027 88.8005 125.93 88.8627C125.833 88.9248 125.749 89.0055 125.683 89.1001C125.617 89.1947 125.57 89.3014 125.545 89.4141C125.52 89.5268 125.518 89.6433 125.538 89.757C125.558 89.8706 125.6 89.9791 125.663 90.0764C125.725 90.1737 125.805 90.2578 125.9 90.3239L127.059 91.1367L127.983 91.7846L129.611 92.9273C130.268 93.387 130.716 94.0891 130.856 94.879C130.996 95.669 130.816 96.4821 130.357 97.1396C129.897 97.797 129.195 98.2449 128.405 98.3847C127.615 98.5245 126.802 98.3447 126.144 97.885L122.84 95.5686C123.193 94.7796 123.325 93.9099 123.223 93.0519C123.12 92.1938 122.787 91.3795 122.259 90.6956C121.731 90.0116 121.028 89.4835 120.223 89.1674C119.419 88.8513 118.544 88.759 117.692 88.9004C117.667 88.9046 117.645 88.9151 117.622 88.9193C117.81 88.0887 117.771 87.2228 117.508 86.4126C117.246 85.6023 116.77 84.8778 116.131 84.3151C115.491 83.7525 114.712 83.3725 113.875 83.2152C113.038 83.0579 112.174 83.129 111.374 83.4212C111.384 82.5732 111.168 81.7379 110.746 81.0018C110.325 80.2656 109.715 79.6554 108.979 79.234C108.243 78.8127 107.408 78.5957 106.56 78.6053C105.712 78.615 104.882 78.851 104.156 79.289C104.152 79.2644 104.156 79.2398 104.151 79.2188C104.011 78.3403 103.626 77.5188 103.042 76.848C102.458 76.1773 101.697 75.6841 100.846 75.4247C99.9947 75.1654 99.0879 75.1503 98.2288 75.3811C97.3696 75.612 96.5926 76.0795 95.9862 76.7304L89.9721 72.5112L98.2049 60.2275L99.5344 61.1611C102.44 63.1967 107.343 62.2954 110.659 60.9035L114.676 59.2189C116.692 58.3759 118.94 58.2627 121.031 58.8988L113.013 64.5507C111.976 65.2811 111.271 66.3922 111.051 67.641C110.831 68.8899 111.115 70.175 111.84 71.2154C112.199 71.73 112.656 72.1687 113.184 72.5063C113.713 72.844 114.303 73.0739 114.921 73.1831C115.539 73.2923 116.172 73.2784 116.785 73.1424C117.397 73.0064 117.977 72.7509 118.491 72.3905L125.836 67.2425C127.002 66.4302 128.387 65.9927 129.808 65.9883C131.229 65.9839 132.617 66.4129 133.788 67.218L150.107 78.7078C150.763 79.1694 151.21 79.8721 151.349 80.6623C151.488 81.4524 151.309 82.2655 150.85 82.9235L150.851 82.9123ZM150.58 76.8757L134.792 65.7608C133.326 64.7509 131.587 64.2123 129.807 64.2171C128.027 64.2218 126.291 64.7697 124.831 65.7875L117.485 70.9361C117.16 71.1638 116.793 71.3253 116.406 71.4112C116.019 71.4971 115.618 71.5059 115.227 71.4369C114.837 71.3679 114.463 71.2226 114.129 71.0092C113.794 70.7959 113.505 70.5187 113.278 70.1934C112.819 69.5351 112.64 68.7219 112.779 67.9316C112.918 67.1413 113.365 66.4383 114.021 65.9763L122.248 60.1819C123.548 59.2632 125.061 58.6916 126.644 58.5211C128.226 58.3506 129.826 58.5869 131.292 59.2076L135.309 60.8923C138.577 62.2652 143.433 63.1384 146.365 61.0811L147.698 60.1475L156.021 72.5477L150.58 76.8757Z" fill="#60606B"/>
</g>
</g>
<path d="M61.2833 194.503H59.1697C59.0447 193.895 58.8259 193.361 58.5134 192.901C58.2066 192.44 57.8316 192.054 57.3884 191.742C56.9509 191.423 56.4651 191.185 55.931 191.026C55.3969 190.867 54.8401 190.787 54.2606 190.787C53.2037 190.787 52.2464 191.054 51.3884 191.588C50.5361 192.122 49.8572 192.909 49.3515 193.949C48.8515 194.989 48.6015 196.264 48.6015 197.776C48.6015 199.287 48.8515 200.563 49.3515 201.602C49.8572 202.642 50.5361 203.429 51.3884 203.963C52.2464 204.497 53.2037 204.764 54.2606 204.764C54.8401 204.764 55.3969 204.685 55.931 204.526C56.4651 204.367 56.9509 204.131 57.3884 203.818C57.8316 203.5 58.2066 203.111 58.5134 202.651C58.8259 202.185 59.0447 201.651 59.1697 201.048H61.2833C61.1242 201.94 60.8344 202.739 60.414 203.443C59.9935 204.148 59.4708 204.747 58.8458 205.242C58.2208 205.73 57.5191 206.102 56.7407 206.358C55.9679 206.614 55.1412 206.742 54.2606 206.742C52.7719 206.742 51.4481 206.378 50.289 205.651C49.1299 204.923 48.2179 203.889 47.5532 202.548C46.8884 201.207 46.556 199.617 46.556 197.776C46.556 195.935 46.8884 194.344 47.5532 193.003C48.2179 191.662 49.1299 190.628 50.289 189.901C51.4481 189.173 52.7719 188.81 54.2606 188.81C55.1412 188.81 55.9679 188.938 56.7407 189.193C57.5191 189.449 58.2208 189.824 58.8458 190.318C59.4708 190.807 59.9935 191.403 60.414 192.108C60.8344 192.807 61.1242 193.605 61.2833 194.503ZM79.426 197.776C79.426 199.617 79.0937 201.207 78.4289 202.548C77.7641 203.889 76.8522 204.923 75.6931 205.651C74.534 206.378 73.2101 206.742 71.7215 206.742C70.2329 206.742 68.909 206.378 67.7499 205.651C66.5908 204.923 65.6789 203.889 65.0141 202.548C64.3493 201.207 64.017 199.617 64.017 197.776C64.017 195.935 64.3493 194.344 65.0141 193.003C65.6789 191.662 66.5908 190.628 67.7499 189.901C68.909 189.173 70.2329 188.81 71.7215 188.81C73.2101 188.81 74.534 189.173 75.6931 189.901C76.8522 190.628 77.7641 191.662 78.4289 193.003C79.0937 194.344 79.426 195.935 79.426 197.776ZM77.3806 197.776C77.3806 196.264 77.1278 194.989 76.6221 193.949C76.1221 192.909 75.4431 192.122 74.5851 191.588C73.7329 191.054 72.7783 190.787 71.7215 190.787C70.6647 190.787 69.7073 191.054 68.8493 191.588C67.9971 192.122 67.3181 192.909 66.8124 193.949C66.3124 194.989 66.0624 196.264 66.0624 197.776C66.0624 199.287 66.3124 200.563 66.8124 201.602C67.3181 202.642 67.9971 203.429 68.8493 203.963C69.7073 204.497 70.6647 204.764 71.7215 204.764C72.7783 204.764 73.7329 204.497 74.5851 203.963C75.4431 203.429 76.1221 202.642 76.6221 201.602C77.1278 200.563 77.3806 199.287 77.3806 197.776ZM96.8209 189.048V206.503H94.7755L85.2641 192.798H85.0937V206.503H82.98V189.048H85.0255L94.5709 202.787H94.7414V189.048H96.8209ZM101.05 206.503V189.048H111.516V190.923H103.164V196.821H110.732V198.696H103.164V206.503H101.05ZM117.25 189.048V206.503H115.136V189.048H117.25ZM126.874 206.503H121.488V189.048H127.113C128.806 189.048 130.255 189.398 131.459 190.097C132.664 190.79 133.587 191.787 134.229 193.088C134.871 194.384 135.192 195.935 135.192 197.742C135.192 199.56 134.869 201.125 134.221 202.438C133.573 203.744 132.63 204.75 131.391 205.455C130.153 206.153 128.647 206.503 126.874 206.503ZM123.601 204.628H126.738C128.181 204.628 129.377 204.35 130.326 203.793C131.275 203.236 131.982 202.443 132.448 201.415C132.914 200.386 133.147 199.162 133.147 197.742C133.147 196.332 132.917 195.119 132.457 194.102C131.996 193.08 131.309 192.296 130.394 191.75C129.479 191.199 128.34 190.923 126.976 190.923H123.601V204.628ZM138.738 206.503V189.048H149.272V190.923H140.851V196.821H148.726V198.696H140.851V204.628H149.408V206.503H138.738ZM166.923 189.048V206.503H164.877L155.366 192.798H155.195V206.503H153.082V189.048H155.127L164.673 202.787H164.843V189.048H166.923ZM185.197 194.503H183.084C182.959 193.895 182.74 193.361 182.427 192.901C182.121 192.44 181.746 192.054 181.302 191.742C180.865 191.423 180.379 191.185 179.845 191.026C179.311 190.867 178.754 190.787 178.175 190.787C177.118 190.787 176.16 191.054 175.302 191.588C174.45 192.122 173.771 192.909 173.266 193.949C172.766 194.989 172.516 196.264 172.516 197.776C172.516 199.287 172.766 200.563 173.266 201.602C173.771 202.642 174.45 203.429 175.302 203.963C176.16 204.497 177.118 204.764 178.175 204.764C178.754 204.764 179.311 204.685 179.845 204.526C180.379 204.367 180.865 204.131 181.302 203.818C181.746 203.5 182.121 203.111 182.427 202.651C182.74 202.185 182.959 201.651 183.084 201.048H185.197C185.038 201.94 184.748 202.739 184.328 203.443C183.908 204.148 183.385 204.747 182.76 205.242C182.135 205.73 181.433 206.102 180.655 206.358C179.882 206.614 179.055 206.742 178.175 206.742C176.686 206.742 175.362 206.378 174.203 205.651C173.044 204.923 172.132 203.889 171.467 202.548C170.802 201.207 170.47 199.617 170.47 197.776C170.47 195.935 170.802 194.344 171.467 193.003C172.132 191.662 173.044 190.628 174.203 189.901C175.362 189.173 176.686 188.81 178.175 188.81C179.055 188.81 179.882 188.938 180.655 189.193C181.433 189.449 182.135 189.824 182.76 190.318C183.385 190.807 183.908 191.403 184.328 192.108C184.748 192.807 185.038 193.605 185.197 194.503ZM188.613 206.503V189.048H199.147V190.923H190.726V196.821H198.601V198.696H190.726V204.628H199.283V206.503H188.613Z" fill="#1D2E3B"/>
<defs>
<clipPath id="clip0_111_240">
<rect width="157.231" height="157.231" fill="white" transform="translate(44.3682 0.211914)"/>
</clipPath>
</defs>
</svg>
