<svg width="158" height="158" viewBox="0 0 158 158" fill="none" xmlns="http://www.w3.org/2000/svg">
<g clip-path="url(#clip0_109_186)">
<mask id="mask0_109_186" style="mask-type:luminance" maskUnits="userSpaceOnUse" x="0" y="0" width="158" height="158">
<path d="M79.0492 157.443C122.467 157.443 157.665 122.245 157.665 78.8273C157.665 35.4092 122.467 0.211914 79.0492 0.211914C35.6311 0.211914 0.433838 35.4092 0.433838 78.8273C0.433838 122.245 35.6311 157.443 79.0492 157.443Z" fill="white"/>
</mask>
<g mask="url(#mask0_109_186)">
<path d="M79.0492 1.61576C73.8096 1.61576 68.5737 2.14354 63.4869 3.18445C58.5301 4.19876 53.6545 5.71222 48.9954 7.68285C44.4206 9.61782 40.0081 12.0129 35.8805 14.8014C31.7917 17.5638 27.9467 20.7362 24.4524 24.2305C20.9581 27.7248 17.7857 31.5698 15.0234 35.6586C12.2348 39.7862 9.83975 44.1987 7.90477 48.7735C5.93415 53.4326 4.42068 58.3082 3.40637 63.265C2.36546 68.3517 1.83768 73.5876 1.83768 78.8273C1.83768 84.0669 2.36546 89.3028 3.40637 94.3896C4.42068 99.3463 5.93415 104.222 7.90477 108.881C9.83975 113.456 12.2348 117.868 15.0234 121.996C17.7857 126.085 20.9581 129.93 24.4524 133.424C27.9467 136.918 31.7917 140.091 35.8805 142.853C40.0081 145.642 44.4206 148.037 48.9954 149.972C53.6545 151.942 58.5301 153.456 63.4869 154.47C68.5737 155.511 73.8096 156.039 79.0492 156.039C84.2888 156.039 89.5247 155.511 94.6115 154.47C99.5683 153.456 104.444 151.942 109.103 149.972C113.678 148.037 118.09 145.642 122.218 142.853C126.307 140.091 130.152 136.918 133.646 133.424C137.14 129.93 140.313 126.085 143.075 121.996C145.864 117.868 148.259 113.456 150.194 108.881C152.164 104.222 153.678 99.3463 154.692 94.3896C155.733 89.3028 156.261 84.0669 156.261 78.8273C156.261 73.5876 155.733 68.3517 154.692 63.265C153.678 58.3082 152.164 53.4326 150.194 48.7735C148.259 44.1987 145.864 39.7862 143.075 35.6586C140.313 31.5698 137.14 27.7248 133.646 24.2305C130.152 20.7362 126.307 17.5638 122.218 14.8014C118.09 12.0129 113.678 9.61782 109.103 7.68285C104.444 5.71222 99.5683 4.19876 94.6115 3.18445C89.5247 2.14354 84.2888 1.61576 79.0492 1.61576ZM79.0492 0.211914C122.467 0.211914 157.665 35.4092 157.665 78.8273C157.665 122.245 122.467 157.443 79.0492 157.443C35.6311 157.443 0.433838 122.245 0.433838 78.8273C0.433838 35.4092 35.6311 0.211914 79.0492 0.211914Z" fill="#60606B"/>
<path d="M71.137 44.5716C70.2025 44.5423 69.2691 44.6567 68.3693 44.9107C66.5852 45.4256 65.0235 46.5204 63.9311 48.022C62.8387 49.5236 62.2778 51.3465 62.337 53.2025C62.337 55.5244 63.4404 58.0822 64.7397 60.0862C68.4922 65.8167 73.8647 69.6914 78.4974 73.5632C78.6495 73.6951 78.8442 73.7677 79.0456 73.7677C79.247 73.7677 79.4416 73.6951 79.5938 73.5632C84.2328 69.6878 89.6032 65.8132 93.3515 60.0862C94.6507 58.0822 95.7542 55.5237 95.7542 53.2025C95.8135 51.3466 95.2527 49.5238 94.1604 48.0222C93.0681 46.5206 91.5065 45.4257 89.7225 44.9107C86.4305 43.9476 82.3832 44.9717 79.0428 48.4048C76.586 45.8828 73.7713 44.632 71.1307 44.5716H71.137ZM71.1111 46.2141C73.4744 46.2584 76.0996 47.3941 78.4223 50.0747C78.5007 50.1635 78.5972 50.2346 78.7052 50.2833C78.8132 50.332 78.9303 50.3571 79.0487 50.3571C79.1672 50.3571 79.2843 50.332 79.3923 50.2833C79.5003 50.2346 79.5968 50.1635 79.6752 50.0747C82.7728 46.5019 86.4249 45.7003 89.2586 46.5286C90.6991 46.9238 91.9621 47.7976 92.8401 49.006C93.718 50.2145 94.1585 51.6858 94.0892 53.1779C94.0887 53.1866 94.0887 53.1952 94.0892 53.2039C94.0892 54.9629 93.1184 57.3691 91.9483 59.1751C88.5454 64.3694 83.6032 68.0523 79.0484 71.8217C74.4936 68.053 69.5514 64.3722 66.1485 59.1751C64.9776 57.3691 64.0076 54.9636 64.0076 53.2039C64.0076 53.1955 64.0076 53.1868 64.0076 53.1779C63.9383 51.6858 64.3788 50.2145 65.2567 49.006C66.1347 47.7976 67.3977 46.9238 68.8382 46.5286C69.5756 46.3107 70.3416 46.2054 71.1103 46.2162L71.1111 46.2141ZM52.9635 55.4184C52.8308 55.446 52.7067 55.5056 52.6021 55.5919C52.4975 55.6783 52.4156 55.7888 52.3634 55.914L44.0105 75.9399C43.9698 76.048 43.9521 76.1635 43.9586 76.2789V77.1135C43.9584 77.1845 43.9671 77.2552 43.9846 77.324L49.8337 98.1838C49.8789 98.3586 49.9797 98.514 50.1208 98.6267L58.242 105.119L59.8606 112.342C59.873 112.459 59.9101 112.573 59.9694 112.675C60.0287 112.777 60.1089 112.865 60.2047 112.933C60.3005 113.002 60.4098 113.05 60.5253 113.073C60.6409 113.096 60.7601 113.095 60.875 113.069C60.99 113.043 61.0982 112.993 61.1925 112.923C61.2868 112.852 61.3651 112.762 61.4221 112.659C61.4792 112.556 61.5138 112.442 61.5237 112.324C61.5335 112.207 61.5184 112.088 61.4793 111.977L59.808 104.467C59.7682 104.282 59.6669 104.117 59.5209 103.998L51.3737 97.5057L45.6291 76.9843V76.4628L53.7013 57.141C54.4633 57.1479 55.2002 57.4146 55.7902 57.8969C56.4605 58.4971 56.9982 59.5605 57.3042 61.3364C57.0235 67.2585 53.7532 72.014 51.5597 76.7464C51.4682 76.9329 51.4497 77.147 51.5078 77.3465L54.8503 88.1933C54.8587 88.2106 54.8674 88.228 54.8763 88.2453C55.3105 89.2493 55.9207 90.1676 56.6781 90.9568C56.7379 91.06 56.8192 91.1493 56.9164 91.2185C57.0135 91.2877 57.1244 91.3352 57.2415 91.358C57.3586 91.3808 57.4793 91.3782 57.5953 91.3504C57.7113 91.3226 57.8201 91.2703 57.9142 91.197C58.0083 91.1237 58.0856 91.031 58.141 90.9253C58.1963 90.8196 58.2283 90.7033 58.2349 90.5841C58.2415 90.465 58.2225 90.3459 58.1791 90.2347C58.1358 90.1235 58.0692 90.023 57.9837 89.9397C57.3593 89.2804 56.8478 88.5227 56.4696 87.6971V87.6711C56.4633 87.6557 56.45 87.6606 56.4437 87.6451L53.2317 77.1633C54.2087 75.1004 55.4322 72.9279 56.5216 70.5652C57.3162 70.9372 57.8917 71.4146 58.1669 73.0683C58.1751 73.0774 58.1838 73.086 58.1929 73.0942L59.8641 81.438C59.8896 81.5823 59.9525 81.7174 60.0466 81.8297L66.6531 89.235C69.2917 94.7851 70.6408 103.923 73.2337 112.389C73.2647 112.497 73.317 112.598 73.3874 112.686C73.4578 112.773 73.545 112.846 73.6437 112.899C73.7425 112.953 73.851 112.986 73.9628 112.998C74.0746 113.009 74.1876 112.998 74.295 112.965C74.4025 112.932 74.5023 112.878 74.5887 112.806C74.675 112.734 74.7462 112.646 74.7981 112.546C74.85 112.446 74.8815 112.337 74.8908 112.225C74.9001 112.113 74.887 112.001 74.8523 111.894C72.2973 103.551 70.9917 94.4032 68.1139 88.4264C68.0811 88.35 68.0371 88.2791 67.9833 88.2158L61.4294 80.8624L59.8108 72.7791H59.8368C59.7421 71.9768 59.4426 71.2124 58.9669 70.5593C58.4913 69.9063 57.8556 69.3867 57.121 69.0505C58.206 66.5932 58.8428 63.9617 59.0015 61.2802C59.0084 61.2196 59.0084 61.1583 59.0015 61.0977C58.6589 59.0432 57.9619 57.5776 56.9126 56.6391C55.8534 55.7619 54.4987 55.3233 53.1264 55.4135C53.0743 55.4088 53.0219 55.4088 52.9699 55.4135L52.9635 55.4184ZM104.976 55.4184C103.604 55.3283 102.249 55.7668 101.19 56.644C100.14 57.5825 99.4428 59.0488 99.1009 61.1026C99.0945 61.1633 99.0945 61.2245 99.1009 61.2851C99.2596 63.9666 99.8964 66.5981 100.981 69.0554C100.247 69.3913 99.6106 69.9108 99.135 70.5639C98.6593 71.217 98.3599 71.9816 98.2656 72.784H98.2916L96.673 80.8673L90.1191 88.2207C90.0653 88.284 90.0213 88.3549 89.9886 88.4313C87.1107 94.4081 85.8072 103.556 83.2501 111.899C83.2154 112.006 83.2023 112.118 83.2116 112.23C83.2209 112.342 83.2524 112.451 83.3043 112.551C83.3562 112.651 83.4274 112.739 83.5138 112.811C83.6001 112.883 83.6999 112.937 83.8074 112.97C83.9148 113.002 84.0278 113.014 84.1396 113.002C84.2514 112.991 84.3599 112.958 84.4587 112.904C84.5575 112.851 84.6446 112.778 84.715 112.691C84.7854 112.603 84.8377 112.502 84.8687 112.394C87.4616 103.929 88.8107 94.7893 91.4493 89.2399L98.0558 81.8346C98.1498 81.7225 98.2127 81.5877 98.2383 81.4436L99.9095 73.0999L99.9362 73.0732C100.211 71.4195 100.786 70.9422 101.582 70.5702C102.672 72.9321 103.898 75.1039 104.871 77.1682L101.662 87.6479L101.636 87.6999C101.258 88.5254 100.746 89.283 100.122 89.9425C100.037 90.0258 99.9701 90.1263 99.9268 90.2375C99.8835 90.3487 99.8645 90.4678 99.871 90.587C99.8776 90.7061 99.9097 90.8224 99.965 90.9281C100.02 91.0338 100.098 91.1265 100.192 91.1998C100.286 91.2731 100.395 91.3254 100.511 91.3532C100.627 91.381 100.747 91.3836 100.864 91.3608C100.982 91.338 101.092 91.2905 101.19 91.2213C101.287 91.1521 101.368 91.0628 101.428 90.9596C102.185 90.1704 102.795 89.2521 103.23 88.2481C103.239 88.2312 103.248 88.2137 103.256 88.1961L106.598 77.3486C106.656 77.1491 106.638 76.9351 106.546 76.7485C104.353 72.0154 101.082 67.2599 100.802 61.3385C101.108 59.5605 101.644 58.4964 102.316 57.899C102.906 57.4168 103.643 57.1499 104.405 57.1424L106.964 63.2442C107.053 63.444 107.218 63.6008 107.421 63.681C107.625 63.7611 107.852 63.7582 108.054 63.6729C108.255 63.5875 108.415 63.4266 108.5 63.2245C108.584 63.0225 108.586 62.7954 108.505 62.5921L105.737 55.9168C105.671 55.7703 105.565 55.6456 105.431 55.5578C105.297 55.4699 105.14 55.4225 104.98 55.4213L104.976 55.4184ZM109.023 65.4054C108.891 65.4184 108.765 65.4627 108.653 65.5344C108.542 65.6062 108.449 65.7034 108.383 65.8181C108.317 65.9328 108.279 66.0616 108.272 66.1939C108.265 66.3262 108.29 66.4582 108.345 66.579L112.47 76.4614V76.9829L106.726 97.5043L98.5787 103.996C98.4327 104.116 98.3314 104.281 98.2916 104.465L96.6203 111.976C96.5812 112.087 96.5661 112.205 96.576 112.323C96.5858 112.44 96.6204 112.554 96.6775 112.657C96.7345 112.761 96.8128 112.85 96.9071 112.921C97.0014 112.992 97.1096 113.042 97.2246 113.068C97.3396 113.094 97.4587 113.095 97.5743 113.072C97.6898 113.048 97.7991 113.001 97.8949 112.932C97.9907 112.863 98.0709 112.775 98.1302 112.673C98.1895 112.571 98.2266 112.458 98.239 112.341L99.8576 105.118L107.979 98.6253C108.12 98.5126 108.221 98.3572 108.266 98.1824L114.115 77.3226C114.132 77.2538 114.141 77.1831 114.141 77.1121V76.2768C114.147 76.1614 114.13 76.0459 114.089 75.9378L109.885 65.9248C109.818 65.756 109.697 65.6138 109.542 65.5196C109.386 65.4255 109.204 65.3847 109.023 65.4033V65.4054Z" fill="#60606B"/>
</g>
</g>
<defs>
<clipPath id="clip0_109_186">
<rect width="157.231" height="157.231" fill="white" transform="translate(0.433838 0.211914)"/>
</clipPath>
</defs>
</svg>
