<svg width="246" height="209" viewBox="0 0 246 209" fill="none" xmlns="http://www.w3.org/2000/svg">
<g clip-path="url(#clip0_111_241)">
<mask id="mask0_111_241" style="mask-type:luminance" maskUnits="userSpaceOnUse" x="44" y="0" width="158" height="158">
<path d="M123.016 157.443C166.434 157.443 201.632 122.245 201.632 78.8273C201.632 35.4092 166.434 0.211914 123.016 0.211914C79.5982 0.211914 44.4009 35.4092 44.4009 78.8273C44.4009 122.245 79.5982 157.443 123.016 157.443Z" fill="white"/>
</mask>
<g mask="url(#mask0_111_241)">
<path d="M123.016 156.741C166.047 156.741 200.93 121.858 200.93 78.8275C200.93 35.7971 166.047 0.914062 123.016 0.914062C79.9858 0.914062 45.1028 35.7971 45.1028 78.8275C45.1028 121.858 79.9858 156.741 123.016 156.741Z" stroke="#60606B" stroke-width="2"/>
<path d="M121.978 43.7373C121.752 43.773 121.545 43.8887 121.397 44.0635C121.249 44.2383 121.168 44.4606 121.17 44.6898V53.002C121.17 53.247 121.267 53.4819 121.441 53.6552C121.614 53.8284 121.849 53.9257 122.094 53.9257C122.339 53.9257 122.574 53.8284 122.747 53.6552C122.92 53.4819 123.018 53.247 123.018 53.002V44.6898C123.016 44.5576 122.988 44.427 122.934 44.3063C122.88 44.1855 122.802 44.077 122.705 43.9877C122.607 43.8984 122.492 43.8301 122.367 43.787C122.242 43.7439 122.11 43.727 121.978 43.7373ZM105.406 44.6582C105.272 44.6733 105.143 44.716 105.028 44.7836C104.912 44.8512 104.811 44.9423 104.732 45.0509C104.653 45.1595 104.598 45.2834 104.57 45.4146C104.542 45.5458 104.541 45.6815 104.568 45.8129L106.416 53.2013C106.436 53.3273 106.482 53.4477 106.551 53.5551C106.62 53.6624 106.71 53.7544 106.816 53.8251C106.922 53.8959 107.042 53.9439 107.168 53.9661C107.293 53.9883 107.422 53.9843 107.546 53.9543C107.67 53.9244 107.786 53.869 107.888 53.7918C107.989 53.7147 108.074 53.6173 108.136 53.5059C108.198 53.3944 108.236 53.2714 108.248 53.1444C108.26 53.0175 108.246 52.8894 108.206 52.7682L106.358 45.3805C106.305 45.1697 106.182 44.9832 106.008 44.852C105.835 44.7208 105.622 44.6527 105.405 44.6589L105.406 44.6582ZM140.514 44.6582C140.316 44.6763 140.129 44.7555 139.979 44.8849C139.829 45.0142 139.723 45.1873 139.676 45.3798L137.828 52.7675C137.788 52.8887 137.774 53.0168 137.786 53.1437C137.798 53.2707 137.837 53.3937 137.899 53.5051C137.961 53.6166 138.045 53.714 138.147 53.7911C138.248 53.8683 138.364 53.9236 138.488 53.9536C138.612 53.9836 138.741 53.9876 138.867 53.9654C138.992 53.9432 139.112 53.8951 139.218 53.8244C139.324 53.7537 139.414 53.6617 139.483 53.5544C139.552 53.447 139.598 53.3266 139.618 53.2006L141.466 45.8122C141.493 45.6718 141.489 45.5272 141.454 45.3887C141.419 45.2501 141.353 45.1211 141.262 45.0108C141.171 44.9005 141.057 44.8117 140.928 44.7507C140.799 44.6898 140.657 44.6582 140.514 44.6582ZM92.4144 52.9704C92.2531 53.001 92.1023 53.0719 91.9757 53.1765C91.8492 53.281 91.7512 53.4158 91.6907 53.5684C91.6302 53.721 91.6092 53.8864 91.6297 54.0492C91.6502 54.212 91.7115 54.3671 91.8079 54.4999L96.4273 60.0409C96.5856 60.2279 96.8111 60.3452 97.0551 60.3675C97.2992 60.3897 97.5422 60.3151 97.7317 60.1598C97.9212 60.0045 98.0421 59.7808 98.0681 59.5372C98.0942 59.2935 98.0235 59.0494 97.8711 58.8574L93.2518 53.3164C93.1526 53.193 93.0238 53.0965 92.8775 53.036C92.7311 52.9755 92.5718 52.953 92.4144 52.9704ZM153.391 52.9704C153.152 53.0032 152.935 53.1272 152.785 53.3164L148.165 58.8574C148.013 59.0494 147.942 59.2935 147.968 59.5372C147.994 59.7808 148.115 60.0045 148.305 60.1598C148.494 60.3151 148.737 60.3897 148.981 60.3675C149.225 60.3452 149.451 60.2279 149.609 60.0409L154.229 54.4999C154.331 54.351 154.391 54.1765 154.4 53.9959C154.409 53.8153 154.368 53.6356 154.281 53.4769C154.195 53.3182 154.065 53.1868 153.908 53.0974C153.751 53.008 153.572 52.964 153.391 52.9704ZM112.68 60.3876C112.555 60.4114 112.437 60.4604 112.333 60.5315L94.7799 72.5344C94.5828 72.6804 94.4491 72.8963 94.4062 73.1377C94.3632 73.3792 94.4143 73.6279 94.5489 73.8329L122.264 113.55C122.355 113.666 122.471 113.76 122.604 113.825C122.736 113.889 122.882 113.923 123.029 113.923C123.177 113.923 123.323 113.889 123.455 113.825C123.588 113.76 123.704 113.666 123.795 113.55L143.168 85.8442C143.249 85.7464 143.309 85.6329 143.344 85.5108C143.38 85.3887 143.389 85.2606 143.373 85.1346C143.356 85.0085 143.314 84.8872 143.249 84.7783C143.183 84.6693 143.096 84.575 142.992 84.5014C142.889 84.4277 142.771 84.3762 142.646 84.3501C142.522 84.324 142.394 84.3239 142.269 84.3497C142.145 84.3756 142.027 84.4268 141.923 84.5003C141.819 84.5737 141.732 84.6678 141.666 84.7766L126.105 107.028C130.076 97.3277 133.653 88.4842 136.586 80.7055H136.874C137.004 80.7045 137.132 80.6748 137.25 80.6184L147.528 76.2314L145.363 79.2328C145.281 79.3307 145.221 79.4441 145.186 79.5663C145.151 79.6884 145.141 79.8165 145.157 79.9425C145.174 80.0686 145.216 80.1899 145.282 80.2988C145.347 80.4078 145.434 80.502 145.538 80.5757C145.642 80.6494 145.759 80.7009 145.884 80.727C146.008 80.753 146.137 80.7532 146.261 80.7273C146.385 80.7015 146.503 80.6502 146.607 80.5768C146.711 80.5033 146.798 80.4093 146.864 80.3005L151.483 73.8357C151.618 73.6308 151.669 73.382 151.626 73.1405C151.583 72.899 151.45 72.6831 151.252 72.5372L133.7 60.5343C133.545 60.436 133.364 60.3859 133.18 60.3904H112.684L112.68 60.3876ZM113.113 62.2344H132.918L138.088 65.7861L131.939 69.6242H114.096L107.945 65.7861L113.113 62.2344ZM106.241 66.9373L111.9 70.4581L109.388 78.8566L96.7424 73.4307L106.241 66.9373ZM139.793 66.9373L149.288 73.4371L136.643 78.8629L134.131 70.4644L139.793 66.9373ZM113.549 71.4394C113.625 71.4587 113.702 71.4684 113.78 71.4682H132.258C132.336 71.4682 132.414 71.4585 132.489 71.4394L134.712 78.8566H128.563C128.439 78.8532 128.316 78.8746 128.201 78.9194C128.086 78.9643 127.982 79.0318 127.893 79.1179C127.805 79.204 127.734 79.3069 127.686 79.4206C127.638 79.5343 127.614 79.6565 127.614 79.78C127.614 79.9034 127.638 80.0256 127.686 80.1394C127.734 80.2531 127.805 80.356 127.893 80.4421C127.982 80.5282 128.086 80.5956 128.201 80.6405C128.316 80.6854 128.439 80.7068 128.563 80.7034H134.599C131.394 89.1594 127.44 98.7919 123.022 109.564C118.6 98.7919 114.65 89.1594 111.446 80.7034H112.859C112.982 80.7068 113.105 80.6854 113.22 80.6405C113.335 80.5956 113.44 80.5282 113.528 80.4421C113.617 80.356 113.687 80.2531 113.735 80.1394C113.783 80.0256 113.808 79.9034 113.808 79.78C113.808 79.6565 113.783 79.5343 113.735 79.4206C113.687 79.3069 113.617 79.204 113.528 79.1179C113.44 79.0318 113.335 78.9643 113.22 78.9194C113.105 78.8746 112.982 78.8532 112.859 78.8566H111.328L113.549 71.4394ZM98.4502 76.2012L108.786 80.6163C108.904 80.6708 109.032 80.7005 109.162 80.7034H109.45C112.359 88.4175 115.913 97.1887 119.844 106.793L98.4502 76.2012ZM120.076 78.8566C119.954 78.868 119.837 78.9031 119.729 78.9601C119.621 79.017 119.526 79.0946 119.448 79.1884C119.371 79.2821 119.312 79.3903 119.276 79.5067C119.24 79.6231 119.228 79.7454 119.239 79.8667C119.25 79.9879 119.286 80.1058 119.343 80.2134C119.399 80.3211 119.477 80.4165 119.571 80.4942C119.665 80.5719 119.773 80.6304 119.889 80.6662C120.006 80.7021 120.128 80.7148 120.249 80.7034H121.173C121.296 80.7068 121.419 80.6854 121.534 80.6405C121.649 80.5956 121.754 80.5282 121.842 80.4421C121.931 80.356 122.001 80.2531 122.049 80.1394C122.097 80.0256 122.122 79.9034 122.122 79.78C122.122 79.6565 122.097 79.5343 122.049 79.4206C122.001 79.3069 121.931 79.204 121.842 79.1179C121.754 79.0318 121.649 78.9643 121.534 78.9194C121.419 78.8746 121.296 78.8532 121.173 78.8566H120.074H120.076Z" fill="#60606B"/>
</g>
</g>
<path d="M79.7208 201.048H82.039L83.9822 203.605L84.4936 204.287L87.3913 208.139H85.0731L83.164 205.582L82.6867 204.935L79.7208 201.048ZM88.1072 197.776C88.1072 199.617 87.7748 201.207 87.11 202.548C86.4453 203.889 85.5333 204.923 84.3742 205.651C83.2152 206.378 81.8913 206.742 80.4027 206.742C78.914 206.742 77.5902 206.378 76.4311 205.651C75.272 204.923 74.36 203.889 73.6953 202.548C73.0305 201.207 72.6981 199.617 72.6981 197.776C72.6981 195.935 73.0305 194.344 73.6953 193.003C74.36 191.662 75.272 190.628 76.4311 189.901C77.5902 189.173 78.914 188.81 80.4027 188.81C81.8913 188.81 83.2152 189.173 84.3742 189.901C85.5333 190.628 86.4453 191.662 87.11 193.003C87.7748 194.344 88.1072 195.935 88.1072 197.776ZM86.0617 197.776C86.0617 196.264 85.8089 194.989 85.3032 193.949C84.8032 192.909 84.1242 192.122 83.2663 191.588C82.414 191.054 81.4595 190.787 80.4027 190.787C79.3458 190.787 78.3884 191.054 77.5305 191.588C76.6782 192.122 75.9992 192.909 75.4936 193.949C74.9936 194.989 74.7436 196.264 74.7436 197.776C74.7436 199.287 74.9936 200.563 75.4936 201.602C75.9992 202.642 76.6782 203.429 77.5305 203.963C78.3884 204.497 79.3458 204.764 80.4027 204.764C81.4595 204.764 82.414 204.497 83.2663 203.963C84.1242 203.429 84.8032 202.642 85.3032 201.602C85.8089 200.563 86.0617 199.287 86.0617 197.776ZM103.116 189.048H105.229V200.605C105.229 201.798 104.948 202.864 104.386 203.801C103.829 204.733 103.042 205.469 102.025 206.009C101.008 206.543 99.8146 206.81 98.4453 206.81C97.0759 206.81 95.8828 206.543 94.8657 206.009C93.8487 205.469 93.0589 204.733 92.4964 203.801C91.9396 202.864 91.6612 201.798 91.6612 200.605V189.048H93.7748V200.435C93.7748 201.287 93.9623 202.046 94.3373 202.71C94.7123 203.369 95.2464 203.889 95.9396 204.27C96.6384 204.645 97.4737 204.832 98.4453 204.832C99.4169 204.832 100.252 204.645 100.951 204.27C101.65 203.889 102.184 203.369 102.553 202.71C102.928 202.046 103.116 201.287 103.116 200.435V189.048ZM110.166 206.503H107.95L114.359 189.048H116.541L122.95 206.503H120.734L115.518 191.81H115.382L110.166 206.503ZM110.984 199.685H119.916V201.56H110.984V199.685ZM125.669 206.503V189.048H127.783V204.628H135.896V206.503H125.669ZM141.283 189.048V206.503H139.169V189.048H141.283ZM144.566 190.923V189.048H157.657V190.923H152.168V206.503H150.055V190.923H144.566ZM159.419 189.048H161.839L166.68 197.196H166.885L171.726 189.048H174.146L167.839 199.31V206.503H165.726V199.31L159.419 189.048Z" fill="#1D2E3B"/>
<defs>
<clipPath id="clip0_111_241">
<rect width="157.231" height="157.231" fill="white" transform="translate(44.4009 0.211914)"/>
</clipPath>
</defs>
</svg>
