<svg width="158" height="158" viewBox="0 0 158 158" fill="none" xmlns="http://www.w3.org/2000/svg">
<g clip-path="url(#clip0_109_204)">
<mask id="mask0_109_204" style="mask-type:luminance" maskUnits="userSpaceOnUse" x="0" y="0" width="158" height="158">
<path d="M78.9835 157.443C122.402 157.443 157.599 122.245 157.599 78.8273C157.599 35.4092 122.402 0.211914 78.9835 0.211914C35.5655 0.211914 0.368164 35.4092 0.368164 78.8273C0.368164 122.245 35.5655 157.443 78.9835 157.443Z" fill="white"/>
</mask>
<g mask="url(#mask0_109_204)">
<path d="M78.9835 156.741C122.014 156.741 156.897 121.858 156.897 78.8275C156.897 35.7971 122.014 0.914062 78.9835 0.914062C35.9531 0.914062 1.07007 35.7971 1.07007 78.8275C1.07007 121.858 35.9531 156.741 78.9835 156.741Z" stroke="#60606B" stroke-width="2"/>
<path d="M113.929 72.2381L104.649 58.4243C104.584 58.3274 104.501 58.2444 104.403 58.1802C104.306 58.116 104.196 58.0719 104.082 58.0505C103.967 58.0291 103.849 58.0309 103.735 58.0557C103.621 58.0804 103.513 58.1277 103.417 58.1948L101.355 59.6421C99.1708 61.1751 94.9677 60.5245 91.9845 59.2722L87.9674 57.5876C86.5426 56.9876 85.0079 56.6927 83.4622 56.7217C81.9165 56.7507 80.3939 57.1031 78.9926 57.7561C77.5872 57.1045 76.0613 56.753 74.5125 56.724C72.9636 56.695 71.4257 56.9891 69.9968 57.5876L65.9804 59.2722C62.9488 60.5462 58.7007 61.2278 56.5409 59.7109L54.4787 58.2636C54.3831 58.1966 54.2751 58.1495 54.161 58.1248C54.0469 58.1002 53.9291 58.0985 53.8144 58.1199C53.6997 58.1414 53.5904 58.1855 53.4929 58.2497C53.3955 58.3139 53.3118 58.3969 53.2468 58.4938L44.0362 72.2381C43.9081 72.4294 43.86 72.6632 43.9021 72.8895C43.9442 73.1158 44.0732 73.3166 44.2615 73.449L50.915 78.1174L49.7456 79.7592C49.0114 80.7931 48.7163 82.0756 48.9247 83.3264C49.1332 84.5772 49.8283 85.6946 50.8582 86.4345C51.6634 87.0139 52.6303 87.3257 53.6223 87.326C53.8895 87.326 54.1562 87.3037 54.4197 87.2593C54.4443 87.2551 54.466 87.2445 54.4899 87.2403C54.3099 88.0698 54.3546 88.9323 54.6196 89.7387C54.8845 90.545 55.36 91.266 55.9969 91.827C56.6338 92.3881 57.409 92.7688 58.2423 92.93C59.0757 93.0911 59.9369 93.0267 60.737 92.7434C60.7222 93.5104 60.8961 94.2692 61.2435 94.9532C61.5909 95.6372 62.101 96.2253 62.7291 96.6658C63.536 97.2447 64.5044 97.5555 65.4975 97.5544C66.3633 97.5516 67.2123 97.3143 67.9542 96.8679C67.9577 96.8932 67.9542 96.9185 67.9591 96.9437C68.113 97.8765 68.5403 98.7425 69.187 99.4321C69.8337 100.122 70.6706 100.604 71.5916 100.817C72.5125 101.03 73.4761 100.965 74.3601 100.63C75.2441 100.295 76.0087 99.7052 76.557 98.9351L77.899 97.0504L81.1384 99.3232C81.8826 99.8493 82.7624 100.15 83.6728 100.19C84.5833 100.23 85.486 100.008 86.2736 99.5492C87.0611 99.0906 87.7002 98.4152 88.1146 97.6035C88.529 96.7919 88.7014 95.8782 88.6111 94.9713C89.2827 95.3226 90.0291 95.5068 90.787 95.5083C91.0694 95.5084 91.3513 95.4838 91.6293 95.4346C92.8345 95.2238 93.9119 94.5564 94.6373 93.5712C95.3627 92.586 95.6802 91.359 95.5236 90.1456C96.0564 90.3527 96.6226 90.4609 97.1942 90.465C97.4766 90.4651 97.7584 90.4404 98.0365 90.3913C99.2124 90.1868 100.268 89.5462 100.992 88.5975C101.716 87.6488 102.056 86.4618 101.943 85.2735C102.919 85.8607 104.073 86.0791 105.196 85.8889C106.318 85.6988 107.336 85.1127 108.064 84.237C108.792 83.3613 109.182 82.2538 109.163 81.1152C109.145 79.9766 108.719 78.8823 107.964 78.0304L113.755 73.4188C113.928 73.2808 114.042 73.0829 114.076 72.8645C114.109 72.6461 114.06 72.423 113.936 72.2396L113.929 72.2381ZM54.1298 85.5248C53.7386 85.5916 53.3379 85.5798 52.9512 85.4903C52.5645 85.4008 52.1995 85.2352 51.8774 85.0033C51.2263 84.535 50.787 83.8282 50.6555 83.0371C50.524 82.246 50.7109 81.435 51.1754 80.7812L52.9787 78.241C53.2088 77.918 53.5003 77.6435 53.8365 77.4333C54.1728 77.223 54.5471 77.081 54.9383 77.0155C55.3294 76.95 55.7296 76.9622 56.116 77.0515C56.5024 77.1407 56.8674 77.3052 57.1902 77.5355C57.8414 78.0036 58.2808 78.7104 58.4123 79.5014C58.5438 80.2924 58.3568 81.1033 57.8921 81.7569L56.9874 83.0274L56.0826 84.2972C55.8533 84.6213 55.562 84.8967 55.2255 85.1073C54.8889 85.318 54.5139 85.4596 54.1221 85.5241L54.1298 85.5248ZM57.4008 90.6959C56.749 90.2282 56.3091 89.5213 56.1775 88.7299C56.0459 87.9385 56.2334 87.1273 56.6989 86.4738L58.4256 84.0494L59.3304 82.7796L60.1523 81.6257C60.3816 81.2986 60.6734 81.0201 61.0109 80.8064C61.3484 80.5927 61.7249 80.4481 62.1186 80.3808C62.5124 80.3135 62.9155 80.3248 63.3048 80.4143C63.6942 80.5037 64.0619 80.6694 64.3868 80.9018C64.7117 81.1341 64.9873 81.4286 65.1977 81.7682C65.4082 82.1077 65.5492 82.4855 65.6127 82.8799C65.6763 83.2743 65.661 83.6773 65.5679 84.0658C65.4747 84.4542 65.3055 84.8203 65.07 85.143L61.6165 89.9912C61.3862 90.3139 61.0945 90.588 60.7581 90.798C60.4217 91.0079 60.0473 91.1495 59.6562 91.2147C59.2651 91.2799 58.865 91.2674 58.4787 91.1779C58.0924 91.0884 57.7276 90.9236 57.405 90.6931L57.4008 90.6959ZM65.9986 95.7567C65.4086 95.8539 64.803 95.7742 64.2583 95.5275C63.7135 95.2808 63.2541 94.8784 62.9378 94.3708C62.6216 93.8633 62.4628 93.2734 62.4815 92.6757C62.5002 92.078 62.6955 91.4993 63.0428 91.0125L66.4963 86.1643C66.9678 85.5256 67.6716 85.0979 68.4557 84.9737C69.2399 84.8495 70.0414 85.0388 70.6871 85.5006C71.3329 85.9623 71.7711 86.6596 71.9071 87.4418C72.0431 88.224 71.866 89.0282 71.414 89.6809L69.6872 92.1054L68.7825 93.3751L67.9605 94.5291C67.731 94.8532 67.4395 95.1285 67.1029 95.3391C66.7662 95.5497 66.3911 95.6915 65.9993 95.7561L65.9986 95.7567ZM75.1278 97.9138C74.6571 98.5543 73.953 98.9837 73.168 99.1089C72.3831 99.2341 71.5804 99.0451 70.9337 98.5828C70.287 98.1205 69.8485 97.4222 69.7129 96.6389C69.5774 95.8556 69.7558 95.0505 70.2095 94.3978L71.1143 93.1274L72.019 91.8576C72.4751 91.1997 73.1739 90.7499 73.9616 90.6072C74.7493 90.4645 75.5614 90.6406 76.2193 91.0967C76.8772 91.5528 77.327 92.2516 77.4697 93.0393C77.6124 93.827 77.4363 94.6391 76.9802 95.297C76.9739 95.3054 76.9648 95.3089 76.9585 95.3174C76.9444 95.337 76.943 95.3602 76.9311 95.3806L75.1278 97.9138ZM106.851 82.9123C106.624 83.2375 106.335 83.5147 106 83.7281C105.666 83.9414 105.293 84.0868 104.902 84.1557C104.511 84.2247 104.111 84.216 103.723 84.13C103.336 84.0441 102.969 83.8827 102.645 83.6549L99.7394 81.6193L91.8491 76.0833C91.658 75.9498 91.4217 75.8977 91.1922 75.9384C90.9626 75.9792 90.7587 76.1094 90.6252 76.3005C90.4918 76.4916 90.4397 76.7279 90.4804 76.9574C90.5212 77.1869 90.6514 77.3908 90.8425 77.5243L92.0014 78.3371L98.7321 83.0597L98.9322 83.2001C99.2577 83.4276 99.5353 83.717 99.749 84.0519C99.9627 84.3867 100.108 84.7603 100.178 85.1514C100.247 85.5425 100.239 85.9434 100.153 86.3313C100.067 86.7192 99.9062 87.0864 99.6786 87.4119C99.4511 87.7375 99.1617 88.0151 98.8269 88.2288C98.4921 88.4425 98.1184 88.5882 97.7273 88.6575C97.3362 88.7268 96.9353 88.7184 96.5474 88.6328C96.1595 88.5472 95.7923 88.386 95.4668 88.1585L93.5351 86.803L87.3778 82.4827C87.2832 82.4166 87.1765 82.3698 87.0638 82.3449C86.9511 82.3201 86.8345 82.3177 86.7209 82.3379C86.6073 82.358 86.4987 82.4004 86.4014 82.4625C86.3042 82.5247 86.2201 82.6053 86.154 82.6999C86.0879 82.7945 86.0411 82.9013 86.0163 83.014C85.9914 83.1267 85.989 83.2432 86.0092 83.3568C86.0293 83.4705 86.0717 83.579 86.1338 83.6763C86.1959 83.7736 86.2766 83.8577 86.3712 83.9238L92.5292 88.2448C93.1867 88.7043 93.6348 89.4062 93.7748 90.1961C93.9148 90.986 93.7352 91.7992 93.2757 92.4567C92.8162 93.1142 92.1142 93.5622 91.3244 93.7022C90.5345 93.8422 89.7213 93.6627 89.0638 93.2032L82.9066 88.8828C82.8119 88.8167 82.7052 88.77 82.5925 88.7451C82.4798 88.7203 82.3633 88.7178 82.2497 88.738C82.136 88.7582 82.0275 88.8005 81.9302 88.8627C81.8329 88.9248 81.7488 89.0055 81.6827 89.1001C81.6167 89.1947 81.5699 89.3014 81.545 89.4141C81.5201 89.5268 81.5177 89.6433 81.5379 89.757C81.5581 89.8706 81.6005 89.9791 81.6626 90.0764C81.7247 90.1737 81.8054 90.2578 81.9 90.3239L83.0589 91.1367L83.9826 91.7846L85.6111 92.9273C86.2685 93.387 86.7164 94.0891 86.8562 94.879C86.996 95.669 86.8162 96.4821 86.3565 97.1396C85.8968 97.797 85.1947 98.2449 84.4048 98.3847C83.6148 98.5245 82.8017 98.3447 82.1443 97.885L78.8403 95.5686C79.1928 94.7796 79.3248 93.9099 79.2225 93.0519C79.1202 92.1938 78.7873 91.3795 78.2592 90.6956C77.7311 90.0116 77.0275 89.4835 76.2233 89.1674C75.4191 88.8513 74.5442 88.759 73.6917 88.9004C73.6671 88.9046 73.6454 88.9151 73.6215 88.9193C73.8097 88.0887 73.7705 87.2228 73.5082 86.4126C73.2458 85.6023 72.77 84.8778 72.1307 84.3151C71.4914 83.7525 70.7123 83.3725 69.8753 83.2152C69.0383 83.0579 68.1744 83.129 67.3744 83.4212C67.3843 82.5732 67.1675 81.7379 66.7465 81.0018C66.3254 80.2656 65.7153 79.6554 64.9793 79.234C64.2433 78.8127 63.4081 78.5957 62.5601 78.6053C61.7121 78.615 60.8821 78.851 60.1558 79.289C60.1523 79.2644 60.1558 79.2398 60.1509 79.2188C60.0106 78.3403 59.6264 77.5188 59.042 76.848C58.4577 76.1773 57.6966 75.6841 56.8456 75.4247C55.9947 75.1654 55.0879 75.1503 54.2288 75.3811C53.3696 75.612 52.5926 76.0795 51.9862 76.7304L45.9721 72.5112L54.2049 60.2275L55.5344 61.1611C58.4396 63.1967 63.3426 62.2954 66.6592 60.9035L70.6756 59.2189C72.6922 58.3759 74.9397 58.2627 77.0308 58.8988L69.0127 64.5507C67.9761 65.2811 67.2708 66.3922 67.051 67.641C66.8312 68.8899 67.1148 70.175 67.8398 71.2154C68.1987 71.73 68.6557 72.1687 69.1845 72.5063C69.7133 72.844 70.3035 73.0739 70.9213 73.1831C71.5391 73.2923 72.1724 73.2784 72.7849 73.1424C73.3973 73.0064 73.977 72.7509 74.4905 72.3905L81.8361 67.2425C83.0017 66.4302 84.3873 65.9927 85.808 65.9883C87.2287 65.9839 88.617 66.4129 89.7875 67.218L106.107 78.7078C106.763 79.1694 107.21 79.8721 107.349 80.6623C107.488 81.4524 107.309 82.2655 106.85 82.9235L106.851 82.9123ZM106.58 76.8757L90.792 65.7608C89.3263 64.7509 87.5872 64.2123 85.8073 64.2171C84.0273 64.2218 82.2912 64.7697 80.831 65.7875L73.4846 70.9361C73.1598 71.1638 72.7932 71.3253 72.4059 71.4112C72.0185 71.4971 71.6181 71.5059 71.2274 71.4369C70.8367 71.3679 70.4634 71.2226 70.1289 71.0092C69.7944 70.7959 69.5053 70.5187 69.278 70.1934C68.8192 69.5351 68.6397 68.7219 68.7789 67.9316C68.9181 67.1413 69.3645 66.4383 70.0207 65.9763L78.2479 60.1819C79.5479 59.2632 81.0609 58.6916 82.6436 58.5211C84.2263 58.3506 85.8263 58.5869 87.2922 59.2076L91.3086 60.8923C94.5774 62.2652 99.4326 63.1384 102.365 61.0811L103.698 60.1475L112.021 72.5477L106.58 76.8757Z" fill="#60606B"/>
</g>
</g>
<defs>
<clipPath id="clip0_109_204">
<rect width="157.231" height="157.231" fill="white" transform="translate(0.368164 0.211914)"/>
</clipPath>
</defs>
</svg>
