<svg width="158" height="158" viewBox="0 0 158 158" fill="none" xmlns="http://www.w3.org/2000/svg">
<g clip-path="url(#clip0_109_214)">
<mask id="mask0_109_214" style="mask-type:luminance" maskUnits="userSpaceOnUse" x="0" y="0" width="158" height="158">
<path d="M78.9508 157.231C122.369 157.231 157.566 122.033 157.566 78.6153C157.566 35.1973 122.369 0 78.9508 0C35.5327 0 0.335449 35.1973 0.335449 78.6153C0.335449 122.033 35.5327 157.231 78.9508 157.231Z" fill="white"/>
</mask>
<g mask="url(#mask0_109_214)">
<path d="M78.9508 156.529C121.981 156.529 156.864 121.646 156.864 78.6156C156.864 35.5852 121.981 0.702148 78.9508 0.702148C35.9204 0.702148 1.03735 35.5852 1.03735 78.6156C1.03735 121.646 35.9204 156.529 78.9508 156.529Z" stroke="#60606B" stroke-width="2"/>
<path d="M79.3579 53.0615V44.498C79.3579 44.2385 79.2547 43.9896 79.0712 43.8061C78.8877 43.6226 78.6389 43.5195 78.3794 43.5195C78.1199 43.5195 77.871 43.6226 77.6875 43.8061C77.504 43.9896 77.4009 44.2385 77.4009 44.498V53.0615C77.4009 53.321 77.504 53.5699 77.6875 53.7534C77.871 53.9369 78.1199 54.04 78.3794 54.04C78.6389 54.04 78.8877 53.9369 79.0712 53.7534C79.2547 53.5699 79.3579 53.321 79.3579 53.0615Z" fill="#60606B"/>
<path d="M55.4757 53.516C55.3848 53.6068 55.3127 53.7146 55.2635 53.8333C55.2143 53.952 55.189 54.0792 55.189 54.2077C55.189 54.3362 55.2143 54.4634 55.2635 54.5821C55.3127 54.7008 55.3848 54.8086 55.4757 54.8994L61.5305 60.9549C61.7152 61.1322 61.9621 61.23 62.2181 61.2274C62.4741 61.2248 62.7189 61.1219 62.8999 60.9409C63.081 60.7599 63.1839 60.515 63.1865 60.259C63.1891 60.003 63.0913 59.7561 62.914 59.5714L56.8592 53.516C56.6757 53.3325 56.4269 53.2295 56.1675 53.2295C55.908 53.2295 55.6592 53.3325 55.4757 53.516Z" fill="#60606B"/>
<path d="M47.3474 77.708H55.9108C56.1704 77.708 56.4192 77.6049 56.6027 77.4214C56.7862 77.2379 56.8893 76.989 56.8893 76.7295C56.8893 76.47 56.7862 76.2211 56.6027 76.0376C56.4192 75.8541 56.1704 75.751 55.9108 75.751H47.3474C47.0879 75.751 46.839 75.8541 46.6555 76.0376C46.472 76.2211 46.3689 76.47 46.3689 76.7295C46.3689 76.989 46.472 77.2379 46.6555 77.4214C46.839 77.6049 47.0879 77.708 47.3474 77.708Z" fill="#60606B"/>
<path d="M101.128 75.4736C101.128 75.7331 101.231 75.982 101.415 76.1655C101.598 76.349 101.847 76.4521 102.107 76.4521H110.67C110.93 76.4521 111.178 76.349 111.362 76.1655C111.545 75.982 111.648 75.7331 111.648 75.4736C111.648 75.2141 111.545 74.9652 111.362 74.7817C111.178 74.5982 110.93 74.4951 110.67 74.4951H102.104C101.844 74.4951 101.595 74.5982 101.412 74.7817C101.228 74.9652 101.125 75.2141 101.125 75.4736H101.128Z" fill="#60606B"/>
<path d="M101.653 52.6266C101.562 52.5357 101.454 52.4636 101.336 52.4144C101.217 52.3652 101.09 52.3398 100.961 52.3398C100.833 52.3398 100.706 52.3652 100.587 52.4144C100.468 52.4636 100.36 52.5357 100.269 52.6266L94.2147 58.6821C94.0374 58.8668 93.9396 59.1136 93.9422 59.3697C93.9448 59.6257 94.0477 59.8705 94.2287 60.0515C94.4098 60.2326 94.6546 60.3354 94.9106 60.3381C95.1666 60.3407 95.4135 60.2429 95.5982 60.0656L101.653 54.0101C101.744 53.9193 101.816 53.8114 101.865 53.6927C101.914 53.574 101.94 53.4468 101.94 53.3183C101.94 53.1898 101.914 53.0626 101.865 52.9439C101.816 52.8252 101.744 52.7174 101.653 52.6266Z" fill="#60606B"/>
<path d="M74.1292 113.711H84.3288C84.4577 113.711 84.5853 113.686 84.7045 113.637C84.8236 113.589 84.9319 113.517 85.0232 113.426C85.1145 113.335 85.187 113.227 85.2364 113.108C85.2859 112.989 85.3114 112.861 85.3115 112.732V109.374H85.8204C86.7799 109.374 87.7 108.993 88.3789 108.315C89.0577 107.637 89.44 106.718 89.4416 105.758V100.019C90.0562 99.5724 90.5567 98.9868 90.9025 98.3102C91.2482 97.6335 91.4295 96.8849 91.4316 96.125V90.4394C94.2375 87.962 96.2227 84.689 97.1231 81.0557C98.0235 77.4225 97.7964 73.6012 96.472 70.1002C95.1476 66.5992 92.7887 63.5844 89.709 61.4567C86.6294 59.3291 82.975 58.1895 79.2318 58.1895C75.4887 58.1895 71.8342 59.3291 68.7546 61.4567C65.6749 63.5844 63.316 66.5992 61.9916 70.1002C60.6672 73.6012 60.4401 77.4225 61.3405 81.0557C62.2409 84.689 64.2261 87.962 67.032 90.4394V96.125C67.0341 96.8846 67.2152 97.6331 67.5607 98.3096C67.9062 98.9861 68.4064 99.5716 69.0206 100.019V105.758C69.0224 106.718 69.4049 107.638 70.0841 108.315C70.7632 108.993 71.6836 109.374 72.6432 109.374H73.1514V112.73C73.1515 112.859 73.177 112.986 73.2265 113.105C73.2759 113.224 73.3484 113.332 73.4397 113.423C73.531 113.514 73.6393 113.586 73.7585 113.635C73.8776 113.684 74.0053 113.709 74.1341 113.708L74.1292 113.711ZM83.3489 111.754H75.1091V109.374H83.3489V111.754ZM87.4798 105.76C87.479 106.201 87.3036 106.622 86.9922 106.934C86.6807 107.245 86.2585 107.419 85.8183 107.42H80.2099V100.979H86.5694C86.8757 100.978 87.1813 100.947 87.4819 100.888L87.4798 105.76ZM68.9904 90.7279V89.9944C68.9904 89.9818 68.9834 89.9712 68.9827 89.9586C68.9587 89.7015 68.8469 89.4606 68.6661 89.2763C68.6556 89.2665 68.6521 89.2525 68.6409 89.2433C66.0517 87.0704 64.1937 84.1536 63.319 80.8886C62.4444 77.6236 62.5954 74.1685 63.7516 70.9923C64.9078 67.816 67.0132 65.0724 69.782 63.1337C72.5509 61.195 75.8492 60.155 79.2294 60.155C82.6095 60.155 85.9078 61.195 88.6767 63.1337C91.4456 65.0724 93.5509 67.816 94.7071 70.9923C95.8633 74.1685 96.0143 77.6236 95.1397 80.8886C94.265 84.1536 92.407 87.0704 89.8179 89.2433C89.8073 89.2525 89.8031 89.2672 89.7926 89.277C89.6926 89.3657 89.6124 89.4744 89.557 89.596C89.5016 89.7176 89.4724 89.8495 89.4711 89.9832V89.993V96.1292C89.4694 96.8973 89.1632 97.6333 88.6197 98.176C88.0761 98.7186 87.3395 99.0236 86.5715 99.0239H80.212V82.639H84.3316C84.5911 82.639 84.84 82.5359 85.0235 82.3524C85.207 82.1689 85.3101 81.92 85.3101 81.6605C85.3101 81.401 85.207 81.1521 85.0235 80.9686C84.84 80.7851 84.5911 80.682 84.3316 80.682H74.1299C73.8704 80.682 73.6215 80.7851 73.438 80.9686C73.2545 81.1521 73.1514 81.401 73.1514 81.6605C73.1514 81.92 73.2545 82.1689 73.438 82.3524C73.6215 82.5359 73.8704 82.639 74.1299 82.639H78.2502V99.0232H71.8893C71.1213 99.023 70.3847 98.7181 69.8412 98.1754C69.2977 97.6327 68.9917 96.8966 68.9904 96.1285V90.7279ZM70.979 105.761V100.888C71.2795 100.948 71.5851 100.978 71.8914 100.98H78.2523V107.421H72.6439C72.2036 107.421 71.7812 107.246 71.4696 106.935C71.1579 106.624 70.9825 106.202 70.9818 105.762L70.979 105.761Z" fill="#60606B"/>
</g>
</g>
<defs>
<clipPath id="clip0_109_214">
<rect width="157.231" height="157.231" fill="white" transform="translate(0.335449)"/>
</clipPath>
</defs>
</svg>
