<svg width="98" height="98" viewBox="0 0 98 98" fill="none" xmlns="http://www.w3.org/2000/svg">
<g clip-path="url(#clip0_18_325)">
<path d="M66.3133 46.9991L72.7242 40.5883L57.4117 25.2758L51.0008 31.6866L34.0958 14.8225C30.9108 11.6375 25.725 11.6375 22.54 14.8225L14.7817 22.5808C11.5967 25.7658 11.5967 30.9516 14.7817 34.1366L31.6458 51.0008L12.25 70.4375V85.75H27.5625L46.9992 66.3133L63.8633 83.1775C67.7425 87.0566 72.9692 85.6275 75.4192 83.1775L83.1775 75.4191C86.3625 72.2341 86.3625 67.0483 83.1775 63.8633L66.3133 46.9991ZM37.485 45.2025L20.58 28.3383L28.2975 20.58L33.4833 25.7658L28.665 30.625L34.4225 36.3825L39.2817 31.5233L45.2025 37.4441L37.485 45.2025ZM69.6617 77.42L52.7975 60.5558L60.5558 52.7975L66.4767 58.7183L61.6175 63.5775L67.375 69.335L72.2342 64.4758L77.42 69.6616L69.6617 77.42Z" fill="#1D2E3B"/>
<path d="M84.5658 28.7467C86.1583 27.1542 86.1583 24.5817 84.5658 22.9892L75.0108 13.4342C73.0916 11.515 70.4374 12.25 69.2533 13.4342L61.7808 20.9067L77.0933 36.2192L84.5658 28.7467Z" fill="#1D2E3B"/>
</g>
<defs>
<clipPath id="clip0_18_325">
<rect width="98" height="98" fill="white"/>
</clipPath>
</defs>
</svg>
